<svg width="15" height="13" viewBox="0 0 15 13" fill="none" xmlns="http://www.w3.org/2000/svg">
<path d="M6.52508 12.2C3.47371 12.2 1.00008 9.58087 1.00008 6.35C1.00008 3.11913 3.47371 0.5 6.52508 0.5C9.57645 0.5 12.0501 3.11913 12.0501 6.35C12.0501 9.58087 9.57645 12.2 6.52508 12.2Z" stroke="#8225F9" stroke-linecap="round" stroke-linejoin="round"/>
<path d="M8.15 4.27C7.7363 3.93453 7.22012 3.751 6.6875 3.75C5.34135 3.75 4.25 4.9135 4.25 6.35C4.25 7.7865 5.34135 8.95 6.6875 8.95C7.2361 8.95 7.74245 8.7563 8.15 8.43" stroke="#8225F9" stroke-linecap="round" stroke-linejoin="round"/>
<path d="M6.85003 0.5C9.23358 0.5 14 1.085 14 6.35C14 11.615 9.23358 12.2 6.85003 12.2" stroke="#8225F9"/>
</svg>
