<svg width="24" height="24" viewBox="0 0 24 24" fill="none" xmlns="http://www.w3.org/2000/svg">
<path d="M9.61538 5H5.76923C5.56522 5 5.36956 5.08104 5.2253 5.2253C5.08104 5.36956 5 5.56522 5 5.76923V9.61538C5 9.8194 5.08104 10.0151 5.2253 10.1593C5.36956 10.3036 5.56522 10.3846 5.76923 10.3846H9.61538C9.8194 10.3846 10.0151 10.3036 10.1593 10.1593C10.3036 10.0151 10.3846 9.8194 10.3846 9.61538V5.76923C10.3846 5.56522 10.3036 5.36956 10.1593 5.2253C10.0151 5.08104 9.8194 5 9.61538 5V5Z" stroke="black" stroke-linejoin="round"/>
<path d="M9.61538 13.6152H5.76923C5.56522 13.6152 5.36956 13.6963 5.2253 13.8405C5.08104 13.9848 5 14.1805 5 14.3845V18.2306C5 18.4346 5.08104 18.6303 5.2253 18.7745C5.36956 18.9188 5.56522 18.9998 5.76923 18.9998H9.61538C9.8194 18.9998 10.0151 18.9188 10.1593 18.7745C10.3036 18.6303 10.3846 18.4346 10.3846 18.2306V14.3845C10.3846 14.1805 10.3036 13.9848 10.1593 13.8405C10.0151 13.6963 9.8194 13.6152 9.61538 13.6152Z" stroke="black" stroke-linejoin="round"/>
<path d="M18.2307 5H14.3846C14.1806 5 13.9849 5.08104 13.8407 5.2253C13.6964 5.36956 13.6154 5.56522 13.6154 5.76923V9.61538C13.6154 9.8194 13.6964 10.0151 13.8407 10.1593C13.9849 10.3036 14.1806 10.3846 14.3846 10.3846H18.2307C18.4348 10.3846 18.6304 10.3036 18.7747 10.1593C18.9189 10.0151 19 9.8194 19 9.61538V5.76923C19 5.56522 18.9189 5.36956 18.7747 5.2253C18.6304 5.08104 18.4348 5 18.2307 5V5Z" stroke="black" stroke-linejoin="round"/>
<path d="M18.2307 13.6152H14.3846C14.1806 13.6152 13.9849 13.6963 13.8407 13.8405C13.6964 13.9848 13.6154 14.1805 13.6154 14.3845V18.2306C13.6154 18.4346 13.6964 18.6303 13.8407 18.7745C13.9849 18.9188 14.1806 18.9998 14.3846 18.9998H18.2307C18.4348 18.9998 18.6304 18.9188 18.7747 18.7745C18.9189 18.6303 19 18.4346 19 18.2306V14.3845C19 14.1805 18.9189 13.9848 18.7747 13.8405C18.6304 13.6963 18.4348 13.6152 18.2307 13.6152Z" stroke="black" stroke-linejoin="round"/>
</svg>
