<svg width="48" height="48" viewBox="0 0 48 48" fill="none" xmlns="http://www.w3.org/2000/svg">
<path d="M23.002 14.2585C23.3073 14.089 23.6508 14 24 14C24.3492 14 24.6927 14.089 24.998 14.2585L32.7217 18.5485C32.8819 18.6375 33.0153 18.7677 33.1082 18.9257C33.201 19.0836 33.25 19.2635 33.25 19.4467V27.9105C33.2499 28.277 33.1518 28.6369 32.9659 28.9528C32.7799 29.2687 32.5129 29.5291 32.1924 29.707L24.998 33.7051C24.6927 33.8746 24.3492 33.9636 24 33.9636C23.6508 33.9636 23.3073 33.8746 23.002 33.7051L15.8076 29.707C15.4873 29.5292 15.2203 29.2689 15.0344 28.9532C14.8485 28.6375 14.7503 28.2779 14.75 27.9115V19.4467C14.75 19.2635 14.799 19.0836 14.8918 18.9257C14.9847 18.7677 15.1181 18.6375 15.2783 18.5485L23.0031 14.2585H23.002Z" stroke="#343434" stroke-width="1.5" stroke-linecap="round" stroke-linejoin="round"/>
<path d="M19.3751 16.273L28.6251 21.4119V25.0091" stroke="#343434" stroke-width="1.5" stroke-linecap="round" stroke-linejoin="round"/>
<path d="M17.8335 24.3184L20.9168 26.0368" stroke="#343434" stroke-width="1.5" stroke-linecap="round" stroke-linejoin="round"/>
<path d="M24 23.9813V34.259M14.75 18.8424L24 23.9813L14.75 18.8424ZM24 23.9813L33.25 18.8424L24 23.9813Z" stroke="#343434" stroke-width="1.5" stroke-linejoin="round"/>
</svg>
