<svg width="48" height="48" viewBox="0 0 48 48" fill="none" xmlns="http://www.w3.org/2000/svg">
<path d="M30.0328 27.6041H18.0292V20.8643C18.0292 17.9571 20.3862 15.6001 23.2934 15.6001H24.8154C27.697 15.6001 30.0328 17.9359 30.0328 20.8175V27.6038V27.6041Z" stroke="black" stroke-miterlimit="10" stroke-linecap="round" stroke-linejoin="round"/>
<path d="M18.0292 27.604H30.0325V32.3321H18.0292V27.604Z" stroke="black" stroke-miterlimit="10" stroke-linecap="round" stroke-linejoin="round"/>
<path d="M30.0328 27.6042H18.0292V26.3605C18.0291 26.1697 18.0667 25.9807 18.1397 25.8044C18.2127 25.6281 18.3197 25.4679 18.4546 25.3329C18.5896 25.198 18.7498 25.091 18.9261 25.018C19.1024 24.945 19.2914 24.9074 19.4822 24.9075H28.2743C28.5052 24.9075 28.7339 24.953 28.9473 25.0413C29.1606 25.1297 29.3545 25.2592 29.5178 25.4225C29.6811 25.5858 29.8106 25.7797 29.899 25.9931C29.9874 26.2064 30.0328 26.4351 30.0328 26.666V27.6038V27.6042Z" stroke="black" stroke-miterlimit="10" stroke-linecap="round" stroke-linejoin="round"/>
<path d="M30.0328 27.6042H18.0292V26.3605C18.0291 26.1697 18.0667 25.9807 18.1397 25.8044C18.2127 25.6281 18.3197 25.4679 18.4546 25.3329C18.5896 25.198 18.7498 25.091 18.9261 25.018C19.1024 24.945 19.2914 24.9074 19.4822 24.9075H28.2743C28.5052 24.9075 28.7339 24.953 28.9473 25.0413C29.1606 25.1297 29.3545 25.2592 29.5178 25.4225C29.6811 25.5858 29.8106 25.7797 29.899 25.9931C29.9874 26.2064 30.0328 26.4351 30.0328 26.666V27.6038V27.6042Z" fill="#8225F9" stroke="black" stroke-miterlimit="10" stroke-linecap="round" stroke-linejoin="round"/>
<path d="M14.75 32.3319H18.0292V22.301H16.6248C16.1275 22.301 15.6507 22.4985 15.2991 22.8501C14.9475 23.2017 14.75 23.6786 14.75 24.1758V32.3319V32.3319Z" stroke="black" stroke-miterlimit="10" stroke-linecap="round" stroke-linejoin="round"/>
<path d="M33.25 32.3319H29.9708V22.301H31.3752C31.8725 22.301 32.3493 22.4985 32.7009 22.8501C33.0525 23.2017 33.25 23.6786 33.25 24.1758V32.3319V32.3319Z" stroke="black" stroke-miterlimit="10" stroke-linecap="round" stroke-linejoin="round"/>
</svg>
