<svg width="24" height="21" viewBox="0 0 24 21" fill="none" xmlns="http://www.w3.org/2000/svg">
<g filter="url(#filter0_d_2518_16621)">
<path d="M11.0549 16.4754L11.0538 16.4744C8.46406 14.126 6.37492 12.2274 4.92445 10.4529C3.48222 8.68839 2.75 7.13843 2.75 5.5C2.75 2.82511 4.83332 0.75 7.5 0.75C9.01327 0.75 10.4781 1.45834 11.4309 2.56846L12 3.23157L12.5691 2.56846C13.5219 1.45834 14.9867 0.75 16.5 0.75C19.1667 0.75 21.25 2.82511 21.25 5.5C21.25 7.13843 20.5178 8.68839 19.0756 10.4529C17.6251 12.2274 15.5359 14.126 12.9462 16.4744L12.9451 16.4754L12 17.3358L11.0549 16.4754Z" stroke="white" stroke-width="1.5"/>
</g>
<defs>
<filter id="filter0_d_2518_16621" x="0" y="0" width="24" height="22.35" filterUnits="userSpaceOnUse" color-interpolation-filters="sRGB">
<feFlood flood-opacity="0" result="BackgroundImageFix"/>
<feColorMatrix in="SourceAlpha" type="matrix" values="0 0 0 0 0 0 0 0 0 0 0 0 0 0 0 0 0 0 127 0" result="hardAlpha"/>
<feOffset dy="2"/>
<feGaussianBlur stdDeviation="1"/>
<feColorMatrix type="matrix" values="0 0 0 0 0 0 0 0 0 0 0 0 0 0 0 0 0 0 0.4 0"/>
<feBlend mode="normal" in2="BackgroundImageFix" result="effect1_dropShadow_2518_16621"/>
<feBlend mode="normal" in="SourceGraphic" in2="effect1_dropShadow_2518_16621" result="shape"/>
</filter>
</defs>
</svg>
