<svg width="48" height="48" viewBox="0 0 48 48" fill="none" xmlns="http://www.w3.org/2000/svg">
<path d="M19.5 20.5L24 15L28 20.5H19.5Z" fill="#8225F9"/>
<path d="M14.152 20.9853L23.3909 32.9686C23.4581 33.0561 23.5445 33.127 23.6434 33.1758C23.7424 33.2246 23.8512 33.25 23.9615 33.25C24.0718 33.25 24.1807 33.2246 24.2796 33.1758C24.3786 33.127 24.4649 33.0561 24.5321 32.9686L33.771 20.9853C33.8618 20.8671 33.9145 20.7239 33.9221 20.575C33.9296 20.426 33.8917 20.2783 33.8133 20.1515L30.6794 15.0929C30.6148 14.9882 30.5246 14.9017 30.4173 14.8417C30.31 14.7817 30.1891 14.7501 30.0661 14.75H17.8569C17.734 14.7501 17.6131 14.7817 17.5057 14.8417C17.3984 14.9017 17.3082 14.9882 17.2437 15.0929L14.1098 20.1515C14.0314 20.2783 13.9934 20.426 14.0009 20.575C14.0085 20.7239 14.0612 20.8671 14.152 20.9853V20.9853Z" stroke="black" stroke-linecap="round" stroke-linejoin="round"/>
<path d="M14.7114 20.4424H33.2115" stroke="black" stroke-linecap="round" stroke-linejoin="round"/>
<path d="M30.3653 15.4615L28.2307 20.4423L23.9614 14.75" stroke="black" stroke-linecap="round" stroke-linejoin="round"/>
<path d="M17.5576 15.4615L19.6922 20.4423L23.9615 14.75" stroke="black" stroke-linecap="round" stroke-linejoin="round"/>
<path d="M23.9614 32.5386L19.6921 20.4424" stroke="black" stroke-linecap="round" stroke-linejoin="round"/>
<path d="M23.9614 32.5386L28.2307 20.4424" stroke="black" stroke-linecap="round" stroke-linejoin="round"/>
</svg>
