<svg width="19" height="19" viewBox="0 0 19 19" fill="none" xmlns="http://www.w3.org/2000/svg">
<path fill-rule="evenodd" clip-rule="evenodd" d="M15.4375 5.625C16.5766 5.625 17.5 4.70159 17.5 3.5625C17.5 2.42341 16.5766 1.5 15.4375 1.5C14.2984 1.5 13.375 2.42341 13.375 3.5625C13.375 4.70159 14.2984 5.625 15.4375 5.625ZM15.4375 7.125C17.405 7.125 19 5.53001 19 3.5625C19 1.59499 17.405 0 15.4375 0C13.47 0 11.875 1.59499 11.875 3.5625C11.875 3.78332 11.8951 3.99945 11.9335 4.20915L6.7238 7.85597C6.12971 6.71592 4.93701 5.9375 3.5625 5.9375C1.59499 5.9375 0 7.53249 0 9.5C0 11.4675 1.59499 13.0625 3.5625 13.0625C4.93701 13.0625 6.12971 12.2841 6.7238 11.144L11.9335 14.7908C11.8951 15.0006 11.875 15.2167 11.875 15.4375C11.875 17.405 13.47 19 15.4375 19C17.405 19 19 17.405 19 15.4375C19 13.47 17.405 11.875 15.4375 11.875C14.2374 11.875 13.176 12.4684 12.5305 13.3777L7.12381 9.59305C7.1246 9.56213 7.125 9.53111 7.125 9.5C7.125 9.46889 7.1246 9.43787 7.12381 9.40695L12.5305 5.62228C13.176 6.53163 14.2374 7.125 15.4375 7.125ZM5.625 9.5C5.625 10.6391 4.70159 11.5625 3.5625 11.5625C2.42341 11.5625 1.5 10.6391 1.5 9.5C1.5 8.36091 2.42341 7.4375 3.5625 7.4375C4.70159 7.4375 5.625 8.36091 5.625 9.5ZM17.5 15.4375C17.5 16.5766 16.5766 17.5 15.4375 17.5C14.2984 17.5 13.375 16.5766 13.375 15.4375C13.375 14.2984 14.2984 13.375 15.4375 13.375C16.5766 13.375 17.5 14.2984 17.5 15.4375Z" fill="white"/>
</svg>
