<svg width="21" height="19" viewBox="0 0 21 19" fill="none" xmlns="http://www.w3.org/2000/svg">
<path d="M9.55489 16.4754L9.55381 16.4744C6.96406 14.126 4.87492 12.2274 3.42445 10.4529C1.98222 8.68839 1.25 7.13843 1.25 5.5C1.25 2.82511 3.33332 0.75 6 0.75C7.51327 0.75 8.9781 1.45834 9.93087 2.56846L10.5 3.23157L11.0691 2.56846C12.0219 1.45834 13.4867 0.75 15 0.75C17.6667 0.75 19.75 2.82511 19.75 5.5C19.75 7.13843 19.0178 8.68839 17.5756 10.4529C16.1251 12.2274 14.0359 14.126 11.4462 16.4744L11.4451 16.4754L10.5 17.3358L9.55489 16.4754Z" fill="#FF3838" stroke="#FF3838" stroke-width="1.5"/>
</svg>
