<?xml version="1.0" encoding="UTF-8"?>
<svg width="70px" height="70px" viewBox="0 0 70 70" version="1.1" xmlns="http://www.w3.org/2000/svg" xmlns:xlink="http://www.w3.org/1999/xlink">
    <title>ico_profile_noimage</title>
    <g id="사용자UI" stroke="none" stroke-width="1" fill="none" fill-rule="evenodd">
        <g id="ico_profile_noimage" fill-rule="nonzero">
            <circle id="Oval-Copy-3" fill="#FFFFFF" cx="35" cy="35" r="35"></circle>
            <g id="Group-9" transform="translate(0.000000, 0.000000)" fill="#DDE1E5">
                <path d="M35,1.03028697e-13 C54.3299662,1.03028697e-13 70,15.6700338 70,35 C70,44.3232213 66.3546458,52.7950246 60.4115075,59.0678397 C57.9686958,53.243338 53.5435553,48.4565542 47.9801792,45.5524082 C51.9810532,41.9812835 54.5,36.7848075 54.5,31 C54.5,20.2304474 45.7695526,11.5 35,11.5 C24.2304474,11.5 15.5,20.2304474 15.5,31 C15.5,36.9665463 18.1797063,42.3072136 22.4014504,45.8844554 C16.9027664,48.94087 12.5832328,53.8620174 10.2973142,59.793433 C3.93635145,53.4570144 0,44.6881993 0,35 C0,15.6700338 15.6700338,1.03028697e-13 35,1.03028697e-13 Z" id="Combined-Shape"></path>
                <g id="Group-8" transform="translate(26.000000, 26.999960)">
                    <path d="M17.4143781,2.25794012 C17.3218781,3.70454012 16.3922781,4.50004012 15.3347781,4.50004012 C14.2773781,4.50004012 13.4211781,3.48144012 13.4211781,2.22644012 C13.4211781,0.971540118 14.3127781,-0.0602598819 15.5006781,0.00274011812 C16.8787781,0.0789401181 17.4904781,1.07654012 17.4143781,2.25794012 Z" id="Path-Copy"></path>
                    <path d="M3.95787808,1.84274012 C4.17887808,3.33964012 3.51037808,4.25224012 2.40287808,4.46304012 C1.29537808,4.67374012 0.346478079,3.97204012 0.0717780786,2.69124012 C-0.205821921,1.40784012 0.326678079,0.204540118 1.58427808,0.0310401181 C3.04297808,-0.169059882 3.77667808,0.618040118 3.95787808,1.84274012 L3.95787808,1.84274012 Z" id="Path-Copy-2"></path>
                    <path d="M8.70997808,10.0000401 C9.77087808,10.0000401 10.7882781,9.57864012 11.5383781,8.82844012 C12.2885781,8.07834012 12.7099781,7.06094012 12.7099781,6.00004012 L4.70997808,6.00004012 C4.70997808,7.06094012 5.13137808,8.07834012 5.88157808,8.82844012 C6.63167808,9.57864012 7.64907808,10.0000401 8.70997808,10.0000401 Z" id="Path-Copy-3"></path>
                </g>
            </g>
        </g>
    </g>
</svg>