<svg width="20" height="18" viewBox="0 0 20 18" fill="none" xmlns="http://www.w3.org/2000/svg">
<path d="M1 17L2.29899 13.1051C1.17631 11.4456 0.770172 9.48032 1.1561 7.57472C1.54202 5.66912 2.69374 3.95286 4.39712 2.74505C6.1005 1.53724 8.23963 0.920078 10.4168 1.0083C12.5939 1.09653 14.6609 1.88414 16.2334 3.2247C17.806 4.56526 18.777 6.36755 18.9661 8.29645C19.1551 10.2254 18.5493 12.1496 17.2612 13.7115C15.9731 15.2733 14.0905 16.3664 11.9633 16.7876C9.83606 17.2088 7.60906 16.9294 5.69635 16.0013L1 17Z" stroke="white" stroke-width="1.5" stroke-linecap="round" stroke-linejoin="round"/>
<path d="M9.99292 9.01074V9.02074" stroke="white" stroke-width="1.5" stroke-linecap="round" stroke-linejoin="round"/>
<path d="M5.99609 9.01074V9.02074" stroke="white" stroke-width="1.5" stroke-linecap="round" stroke-linejoin="round"/>
<path d="M13.9899 9.01074V9.02074" stroke="white" stroke-width="1.5" stroke-linecap="round" stroke-linejoin="round"/>
</svg>
