<svg width="25" height="24" viewBox="0 0 25 24" fill="none" xmlns="http://www.w3.org/2000/svg">
<path d="M3.5 20L4.79899 16.1051C3.67631 14.4456 3.27017 12.4803 3.6561 10.5747C4.04202 8.66912 5.19374 6.95286 6.89712 5.74505C8.6005 4.53724 10.7396 3.92008 12.9168 4.0083C15.0939 4.09653 17.1609 4.88414 18.7334 6.2247C20.306 7.56526 21.277 9.36755 21.4661 11.2964C21.6551 13.2254 21.0493 15.1496 19.7612 16.7115C18.4731 18.2733 16.5905 19.3664 14.4633 19.7876C12.3361 20.2088 10.1091 19.9294 8.19635 19.0013L3.5 20Z" stroke="#343434" stroke-linecap="round" stroke-linejoin="round"/>
<path d="M12.493 12.0103V12.0203" stroke="#343434" stroke-linecap="round" stroke-linejoin="round"/>
<path d="M8.49609 12.0103V12.0203" stroke="#343434" stroke-linecap="round" stroke-linejoin="round"/>
<path d="M16.4899 12.0103V12.0203" stroke="#343434" stroke-linecap="round" stroke-linejoin="round"/>
</svg>
