<svg width="48" height="48" viewBox="0 0 48 48" fill="none" xmlns="http://www.w3.org/2000/svg">
<path d="M31.3455 28.5H27.3C26.7478 28.5 26.3 28.9477 26.3 29.5V33.5455" fill="#8229F5"/>
<path d="M18.5227 28.4545H22.7273M18.5227 25.0909H28.6136M18.5227 21.7273H26.9318M16 18.3636H31.1364M31.1364 28.4545H27.0909C26.5386 28.4545 26.0909 28.9023 26.0909 29.4545V33.5M31.1364 16V28.8812C31.1364 29.1465 31.031 29.4008 30.8435 29.5883L27.2247 33.2071C27.0372 33.3946 26.7828 33.5 26.5176 33.5H17C16.4477 33.5 16 33.0523 16 32.5V16C16 15.4477 16.4477 15 17 15H30.1364C30.6886 15 31.1364 15.4477 31.1364 16Z" stroke="black"/>
</svg>
