<svg width="25" height="24" viewBox="0 0 25 24" fill="none" xmlns="http://www.w3.org/2000/svg">
<path d="M11.6369 4.22358C11.9009 4.07695 12.198 4 12.5 4C12.802 4 13.0991 4.07695 13.3631 4.22358L20.0431 7.9338C20.1816 8.01082 20.297 8.12345 20.3773 8.26005C20.4577 8.39664 20.5 8.55223 20.5 8.71069V16.0307C20.4999 16.3477 20.4151 16.6589 20.2543 16.9321C20.0934 17.2053 19.8625 17.4306 19.5853 17.5845L13.3631 21.0422C13.0991 21.1889 12.802 21.2658 12.5 21.2658C12.198 21.2658 11.9009 21.1889 11.6369 21.0422L5.41467 17.5845C5.13765 17.4306 4.90678 17.2055 4.74597 16.9325C4.58515 16.6595 4.50023 16.3484 4.5 16.0316V8.71069C4.49999 8.55223 4.54235 8.39664 4.62268 8.26005C4.70301 8.12345 4.8184 8.01082 4.95689 7.9338L11.6378 4.22358H11.6369Z" stroke="#343434" stroke-linecap="round" stroke-linejoin="round"/>
<path d="M8.5 5.96631L16.5 10.4108V13.5219" stroke="#343434" stroke-linecap="round" stroke-linejoin="round"/>
<path d="M7.16667 12.9238L9.83334 14.4101" stroke="#343434" stroke-linecap="round" stroke-linejoin="round"/>
<path d="M12.5 12.6329V21.5218M4.5 8.18848L12.5 12.6329L4.5 8.18848ZM12.5 12.6329L20.5 8.18848L12.5 12.6329Z" stroke="#343434" stroke-linejoin="round"/>
</svg>
