<svg width="48" height="48" viewBox="0 0 48 48" fill="none" xmlns="http://www.w3.org/2000/svg">
<path d="M17.9875 30.0124H14.75V21.2249L17.5828 18.9124L20.7625 21.2249L24 17.5249L27.2375 21.2249L30.4172 18.9124L33.25 21.2249V30.0124H30.0125" stroke="black" stroke-linecap="round" stroke-linejoin="round"/>
<path d="M30.0123 24.4624V33.2499H17.9873V24.4624" stroke="black" stroke-linecap="round" stroke-linejoin="round"/>
<path d="M20.7625 21.225L24 17.525L27.2375 21.225L32.325 17.525L31.1688 14.75H17.0625L15.675 17.525L20.7625 21.225Z" fill="#8225F9"/>
<path d="M21.6875 17.525H24H21.6875ZM26.3125 17.525H24H26.3125ZM24 17.525L20.7625 21.225L15.675 17.525L17.0625 14.75H31.1688L32.325 17.525L27.2375 21.225L24 17.525Z" stroke="black" stroke-linecap="round" stroke-linejoin="round"/>
</svg>
