<svg width="16" height="15" viewBox="0 0 16 15" fill="none" xmlns="http://www.w3.org/2000/svg">
<path d="M9.99997 14.9333V7.98161L15.7349 2.05977C15.8202 1.97199 15.8875 1.86755 15.933 1.7526C15.9785 1.63764 16.0013 1.51448 15.9999 1.39034V0.514943C15.9999 0.378371 15.9473 0.247394 15.8535 0.150823C15.7597 0.0542528 15.6326 0 15.4999 0H0.499998C0.36739 0 0.240214 0.0542528 0.146446 0.150823C0.0526782 0.247394 0 0.378371 0 0.514943V1.3749C9.34905e-05 1.49652 0.0235569 1.61692 0.0690382 1.72916C0.114519 1.8414 0.181119 1.94326 0.264999 2.02887L5.99998 8.0228V13.2752L9.99997 14.9333Z" fill="#343434"/>
</svg>
