<svg width="48" height="48" viewBox="0 0 48 48" fill="none" xmlns="http://www.w3.org/2000/svg">
<path d="M19 24C18.2 23.6 17.6667 21.8333 17.5 21C19 21.5 22.5 22.5 24.5 22.5C26.5 22.5 29.3333 21.8333 30.5 21.5L31 22L29.5 24C29.5 24.3333 29.4 25.2 29 26C28.6 26.8 28.1667 26.6667 28 26.5C27.8333 26.5 27.4 26.2 27 25C26.6 23.8 25.5 24.5 25 25L25.5 28.5C25.1667 29.1667 24.2 30.5 23 30.5C21.8 30.5 21.1667 29.5 21 29V25C21 24 20 24.5 19 24Z" fill="#8225F9"/>
<path d="M17.6818 22.5682H16C16 17.9238 16 15 24.4091 15C32.8182 15 32.8182 17.9238 32.8182 22.5682H31.1364M31.1364 20.8864C31.1364 21.8156 28.1242 22.5682 24.4091 22.5682C20.694 22.5682 17.6818 21.8156 17.6818 20.8864M31.1364 20.8864C31.1364 19.9572 28.1242 19.2045 24.4091 19.2045C20.694 19.2045 17.6818 19.9572 17.6818 20.8864M31.1364 20.8864C31.1364 23.4091 29.4545 22.5682 29.4545 24.25V25.5114C29.4545 25.8459 29.3217 26.1667 29.0851 26.4033C28.8485 26.6398 28.5277 26.7727 28.1932 26.7727C27.8586 26.7727 27.5378 26.6398 27.3013 26.4033C27.0647 26.1667 26.9318 25.8459 26.9318 25.5114V25.0909C26.9318 24.8679 26.8432 24.654 26.6855 24.4963C26.5278 24.3386 26.3139 24.25 26.0909 24.25C25.8679 24.25 25.654 24.3386 25.4963 24.4963C25.3386 24.654 25.25 24.8679 25.25 25.0909V28.4545C25.25 29.0121 25.0285 29.5468 24.6343 29.9411C24.24 30.3353 23.7053 30.5568 23.1477 30.5568C22.5902 30.5568 22.0554 30.3353 21.6612 29.9411C21.2669 29.5468 21.0455 29.0121 21.0455 28.4545V25.0909C21.0455 24.8679 20.9569 24.654 20.7992 24.4963C20.6415 24.3386 20.4276 24.25 20.2045 24.25C18.9432 24.25 17.6818 23.4091 17.6818 20.8864M31.1364 20.8864V22.5682M17.6818 20.8864V30.9773C17.6818 32.3707 20.694 33.5 24.4091 33.5C28.1242 33.5 31.1364 32.3707 31.1364 30.9773V22.5682" stroke="black"/>
</svg>
