<svg width="21" height="19" viewBox="0 0 21 19" fill="none" xmlns="http://www.w3.org/2000/svg">
<path fill-rule="evenodd" clip-rule="evenodd" d="M6 5.75098C6 5.33676 6.33579 5.00098 6.75 5.00098H18.75C19.1642 5.00098 19.5 5.33676 19.5 5.75098C19.5 6.16519 19.1642 6.50098 18.75 6.50098H6.75C6.33579 6.50098 6 6.16519 6 5.75098Z" fill="#848484"/>
<path fill-rule="evenodd" clip-rule="evenodd" d="M3.26451 5.19505C3.571 5.47368 3.59359 5.94802 3.31496 6.25451L3.30496 6.26551C3.02633 6.572 2.55199 6.59459 2.2455 6.31596C1.93901 6.03733 1.91642 5.56299 2.19505 5.2565L2.20505 5.2455C2.48368 4.93901 2.95802 4.91642 3.26451 5.19505Z" fill="#848484"/>
<path fill-rule="evenodd" clip-rule="evenodd" d="M3.2645 11.195C3.571 11.4737 3.59359 11.948 3.31497 12.2545L3.30497 12.2655C3.02634 12.572 2.55201 12.5946 2.24551 12.316C1.93901 12.0373 1.91642 11.563 2.19504 11.2565L2.20504 11.2455C2.48367 10.939 2.958 10.9164 3.2645 11.195Z" fill="#848484"/>
<path fill-rule="evenodd" clip-rule="evenodd" d="M3.26452 17.1951C3.57101 17.4737 3.59359 17.948 3.31495 18.2545L3.30495 18.2655C3.02631 18.572 2.55197 18.5946 2.24549 18.3159C1.939 18.0373 1.91643 17.563 2.19506 17.2565L2.20506 17.2455C2.4837 16.939 2.95804 16.9164 3.26452 17.1951Z" fill="#848484"/>
<path fill-rule="evenodd" clip-rule="evenodd" d="M6 11.751C6 11.3368 6.33579 11.001 6.75 11.001H18.75C19.1642 11.001 19.5 11.3368 19.5 11.751C19.5 12.1652 19.1642 12.501 18.75 12.501H6.75C6.33579 12.501 6 12.1652 6 11.751Z" fill="#848484"/>
<path fill-rule="evenodd" clip-rule="evenodd" d="M6 17.751C6 17.3368 6.33579 17.001 6.75 17.001H18.75C19.1642 17.001 19.5 17.3368 19.5 17.751C19.5 18.1652 19.1642 18.501 18.75 18.501H6.75C6.33579 18.501 6 18.1652 6 17.751Z" fill="#848484"/>
</svg>
