<svg width="48" height="48" viewBox="0 0 48 48" fill="none" xmlns="http://www.w3.org/2000/svg">
<path d="M33.25 24.0003C33.25 24.5138 33.2085 25.0178 33.1256 25.509C32.8991 26.9093 32.3537 28.2043 31.5659 29.3176V29.3208C30.2134 31.2442 28.1434 32.6285 25.7479 33.0847C25.0157 33.2246 24.2693 33.276 23.5247 33.2378H23.5024C23.3525 33.2282 23.2026 33.2186 23.0527 33.2027C23.0399 33.2027 23.0272 33.1995 23.0144 33.1995C22.89 33.1867 22.7656 33.1708 22.6412 33.1516C22.6061 33.1453 22.5678 33.1421 22.5328 33.1357C22.4371 33.1197 22.3446 33.1038 22.2489 33.0847C22.099 33.056 21.9491 33.0241 21.7991 32.9858C21.7385 32.973 21.6747 32.9571 21.6141 32.9411C21.5312 32.9188 21.4483 32.8933 21.3653 32.8678C21.292 32.8454 21.2154 32.8231 21.1389 32.7976C21.0623 32.7753 20.989 32.7497 20.9156 32.721L20.7338 32.654C20.6987 32.6445 20.6668 32.6317 20.6317 32.6158C20.3386 32.4988 20.0512 32.3679 19.7705 32.2234C19.6972 32.1852 19.627 32.1469 19.5536 32.1054C19.4707 32.0608 19.3909 32.0161 19.3112 31.9683C19.2219 31.914 19.1326 31.863 19.0433 31.8056C19.0178 31.7896 18.9922 31.7705 18.9667 31.7545C18.8423 31.6748 18.7179 31.5887 18.5999 31.5025C18.4978 31.4324 18.399 31.3558 18.3033 31.2825C18.2937 31.2761 18.2873 31.2697 18.2778 31.2601C18.1916 31.1931 18.1087 31.1262 18.029 31.056C17.9875 31.0241 17.946 30.989 17.9078 30.9539L17.8153 30.871C17.8089 30.8678 17.8057 30.8646 17.8025 30.8614C17.7929 30.8518 17.7834 30.8423 17.7738 30.8359C17.7674 30.8327 17.7642 30.8263 17.761 30.8231C17.7553 30.8206 17.7508 30.8161 17.7483 30.8104C17.7074 30.7759 17.6681 30.7397 17.6303 30.7019C17.5888 30.6636 17.5505 30.6286 17.5154 30.5903C17.5091 30.5839 17.5027 30.5775 17.4995 30.5711C17.4676 30.5392 17.4357 30.5105 17.4038 30.4818C17.3553 30.4333 17.3107 30.3788 17.2634 30.3287L17.2571 30.3223L17.2577 30.3227C17.1512 30.2097 17.044 30.0978 16.9413 29.9779C16.8647 29.8885 16.7882 29.796 16.7148 29.7003C15.7491 28.4704 15.1124 27.0148 14.8648 25.4707C14.7883 24.9923 14.75 24.5011 14.75 24.0003C14.75 22.0322 15.3624 20.2077 16.415 18.7085C17.4325 17.2476 18.8647 16.0961 20.5392 15.423C21.6078 14.986 22.7752 14.75 24 14.75C25.2216 14.75 26.3891 14.986 27.4544 15.4198C28.2582 15.7388 29.0046 16.1726 29.6776 16.7021C29.8562 16.8393 30.0316 16.986 30.2007 17.1423H30.2039C30.3729 17.2954 30.5356 17.4549 30.6919 17.6208C30.9311 17.8664 31.1512 18.1248 31.3585 18.3991C31.4255 18.4884 31.4957 18.5809 31.5595 18.6734V18.6766C31.5595 18.6766 31.5595 18.6734 31.5627 18.6766C31.7222 18.8967 31.8721 19.1295 32.006 19.3688C32.0539 19.4485 32.0985 19.5282 32.1432 19.6112C32.1974 19.7101 32.2484 19.8057 32.2931 19.9046C32.3282 19.9716 32.3601 20.0386 32.392 20.1088C32.443 20.2108 32.4877 20.3129 32.5291 20.415C32.5802 20.5298 32.6248 20.6447 32.6663 20.7627C32.7014 20.852 32.7333 20.9413 32.762 21.0338C32.7875 21.1072 32.813 21.1837 32.8385 21.2635C32.8704 21.3655 32.8991 21.4676 32.9278 21.5697C32.947 21.643 32.9661 21.7132 32.9821 21.7866C33.0395 22.0131 33.0873 22.2395 33.1224 22.4724C33.1352 22.5394 33.1447 22.6063 33.1543 22.6765C33.1703 22.7786 33.183 22.8839 33.1926 22.9859C33.199 23.0306 33.2053 23.0752 33.2085 23.1167C33.2181 23.2283 33.2277 23.34 33.2309 23.4548C33.2372 23.5027 33.2404 23.5473 33.2404 23.5952C33.2468 23.7291 33.25 23.8631 33.25 24.0003V24.0003Z" stroke="black" stroke-miterlimit="10" stroke-linecap="round" stroke-linejoin="round"/>
<path d="M24 17.21V21.289" stroke="black" stroke-miterlimit="10" stroke-linecap="round" stroke-linejoin="round"/>
<path d="M26.8672 23.3592L30.6386 22.5098" stroke="black" stroke-miterlimit="10" stroke-linecap="round" stroke-linejoin="round"/>
<path d="M25.7832 26.749L27.712 29.7142" stroke="black" stroke-miterlimit="10" stroke-linecap="round" stroke-linejoin="round"/>
<path d="M22.2123 26.7456L20.2822 29.7143" stroke="black" stroke-miterlimit="10" stroke-linecap="round" stroke-linejoin="round"/>
<path d="M21.1301 23.3684L17.3545 22.5244" stroke="black" stroke-miterlimit="10" stroke-linecap="round" stroke-linejoin="round"/>
<path d="M22.3516 26.1216L22.3517 26.1216C22.3815 26.2134 22.4396 26.2934 22.5176 26.3501C22.5957 26.4068 22.6897 26.4374 22.7861 26.4374C22.7861 26.4374 22.7862 26.4374 22.7862 26.4374H25.2128H25.213C25.3095 26.4374 25.4035 26.4069 25.4816 26.3501C25.5597 26.2934 25.6178 26.2134 25.6476 26.1216L26.3972 23.8136L26.3972 23.8136C26.427 23.7218 26.427 23.6229 26.3972 23.5312C26.3673 23.4394 26.3092 23.3594 26.2312 23.3027L26.2311 23.3027L24.268 21.8763C24.268 21.8763 24.2679 21.8763 24.2679 21.8762C24.1899 21.8196 24.0959 21.7891 23.9995 21.7891C23.903 21.7891 23.8091 21.8196 23.731 21.8763L22.3516 26.1216ZM22.3516 26.1216L21.6015 23.8136C21.6014 23.8135 21.6014 23.8135 21.6014 23.8135C21.6014 23.8135 21.6014 23.8135 21.6014 23.8135C21.5716 23.7217 21.5717 23.6229 21.6015 23.5312C21.6313 23.4394 21.6894 23.3594 21.7675 23.3027C21.7675 23.3027 21.7675 23.3027 21.7675 23.3027L23.731 21.8763L22.3516 26.1216Z" fill="#8225F9" stroke="black"/>
<path d="M27.2791 15.7643L24.5966 17.0785C24.4084 17.1678 24.2043 17.2125 24.0001 17.2093C23.8183 17.2061 23.6365 17.1646 23.4643 17.0849L20.718 15.7771C20.584 15.7133 20.5138 15.5634 20.5394 15.423C21.6079 14.986 22.7753 14.75 24.0001 14.75C25.2218 14.75 26.3892 14.986 27.4545 15.4198C27.4801 15.557 27.4131 15.7005 27.2791 15.7643Z" fill="black"/>
<path d="M22.2487 33.0845C22.0987 33.0558 21.9488 33.0239 21.7989 32.9856C21.7383 32.9729 21.6745 32.9569 21.6139 32.941C21.531 32.9186 21.4481 32.8931 21.3651 32.8676C21.2918 32.8453 21.2152 32.823 21.1387 32.7974C21.0621 32.7751 20.9887 32.7496 20.9154 32.7209L20.7336 32.6539C20.6985 32.6443 20.6666 32.6316 20.6315 32.6156C20.5071 32.5646 20.3827 32.5135 20.2615 32.4593C20.095 32.386 19.932 32.3062 19.7706 32.223C19.6973 32.1853 19.6255 32.1458 19.5534 32.1062C19.4717 32.0616 19.3907 32.0153 19.311 31.9681C19.2208 31.9156 19.1314 31.8616 19.0431 31.8061C19.0169 31.7895 18.9917 31.7716 18.9659 31.7547C17.9669 31.1081 17.1019 30.2752 16.418 29.3015C16.4786 29.193 16.603 29.126 16.7401 29.142L19.7193 29.5056C19.9234 29.5311 20.1148 29.6013 20.2806 29.713C20.4369 29.8182 20.5709 29.9554 20.6698 30.118L21.5693 31.5821L22.2678 32.7241C22.338 32.8389 22.3284 32.9824 22.2487 33.0845Z" fill="black"/>
<path d="M17.3528 22.5239C17.3069 22.7113 17.2209 22.8865 17.1008 23.0375L15.2189 25.366C15.1296 25.4744 14.986 25.5127 14.8648 25.4712C14.7883 24.9928 14.75 24.5016 14.75 24.0008C14.75 22.0327 15.3624 20.2082 16.415 18.709C16.549 18.7249 16.667 18.8206 16.6957 18.961L17.3591 21.937C17.4038 22.1316 17.4006 22.3325 17.3528 22.5239Z" fill="black"/>
<path d="M31.5658 29.318V29.3212C30.2134 31.2446 28.1433 32.6289 25.7479 33.0851C25.665 32.983 25.6554 32.8363 25.7256 32.7182L27.3172 30.1218C27.4197 29.955 27.5583 29.8134 27.7228 29.7074C27.8873 29.6014 28.0736 29.5337 28.2677 29.5094L31.2373 29.1457C31.3777 29.1298 31.5052 29.2031 31.5658 29.318Z" fill="black"/>
<path d="M33.2501 23.9999C33.2501 24.5135 33.2086 25.0174 33.1257 25.5087C33.0674 25.5218 33.0066 25.5183 32.9502 25.4986C32.8938 25.4788 32.8441 25.4436 32.8068 25.397L31.1322 23.3237L30.8993 23.0366C30.7759 22.8846 30.6888 22.7065 30.6446 22.5159C30.6004 22.3252 30.6002 22.1269 30.6442 21.9361L30.9823 20.421V20.4178L31.314 18.9218C31.3395 18.7974 31.4384 18.7017 31.5596 18.6762C31.5596 18.673 31.5596 18.673 31.5628 18.6762C31.7223 18.8963 31.8722 19.1292 32.0061 19.3684C32.054 19.4481 32.0986 19.5279 32.1433 19.6108C32.1975 19.7097 32.2486 19.8054 32.2932 19.9043C32.3283 19.9713 32.3602 20.0382 32.3921 20.1084C32.4431 20.2105 32.4878 20.3126 32.5293 20.4146C32.5803 20.5295 32.6249 20.6443 32.6664 20.7623C32.7015 20.8516 32.7334 20.9409 32.7621 21.0334C32.7876 21.1068 32.8131 21.1834 32.8386 21.2631C32.8705 21.3652 32.8993 21.4672 32.928 21.5693C32.9471 21.6427 32.9662 21.7129 32.9822 21.7862C33.0396 22.0127 33.0874 22.2392 33.1225 22.472C33.1353 22.539 33.1449 22.606 33.1544 22.6762C33.1704 22.7782 33.1831 22.8835 33.1927 22.9856C33.1991 23.0302 33.2055 23.0749 33.2086 23.1163C33.2182 23.228 33.2278 23.3396 33.231 23.4545C33.2374 23.5023 33.2405 23.547 33.2405 23.5948C33.2469 23.7288 33.2501 23.8627 33.2501 23.9999Z" fill="black"/>
</svg>
