<svg width="48" height="48" viewBox="0 0 48 48" fill="none" xmlns="http://www.w3.org/2000/svg">
<path d="M27.5129 16C27.6347 16.8791 27.367 17.5209 26.7088 17.9268C26.051 18.3323 24.982 18.5223 23.502 18.4968" stroke="#8225F9" stroke-linecap="round"/>
<path d="M24 33C27.8327 33 31.0727 29.9632 32.1336 26.4773C32.3718 25.6932 34 25.6932 34 24C34 22.3064 32.3564 22.2091 32.0905 21.3855C30.9873 17.9705 27.7818 15 24 15C20.2159 15 17.0091 17.9727 15.9077 21.3909C15.6432 22.2136 14 22.2773 14 24C14 25.7227 15.6327 25.7227 15.8795 26.5191C16.9532 29.9836 20.1827 33 24 33Z" stroke="black"/>
<path d="M32.0905 21.3855C30.9873 17.9705 27.7818 15 24 15" stroke="black" stroke-linecap="round"/>
<path d="M21.7727 23C21.7727 23.3755 21.6709 23.705 21.5182 23.9346C21.3641 24.1655 21.1764 24.2727 21 24.2727C20.8237 24.2727 20.6364 24.1655 20.4818 23.9346C20.3291 23.705 20.2273 23.3755 20.2273 23C20.2273 22.6241 20.3291 22.2946 20.4818 22.0655C20.6364 21.8346 20.8237 21.7273 21 21.7273C21.1768 21.7273 21.3641 21.8346 21.5182 22.0655C21.6709 22.2946 21.7727 22.6246 21.7727 23Z" fill="black" stroke="black"/>
<path d="M27.773 23C27.773 23.3755 27.6712 23.705 27.5184 23.9346C27.3644 24.1655 27.1766 24.2727 27.0003 24.2727C26.8239 24.2727 26.6362 24.1655 26.4821 23.9346C26.3294 23.705 26.2275 23.3755 26.2275 23C26.2275 22.6241 26.3294 22.2946 26.4821 22.0655C26.6362 21.8346 26.8239 21.7273 27.0003 21.7273C27.1766 21.7273 27.3644 21.8346 27.5184 22.0655C27.6712 22.2946 27.773 22.6246 27.773 23Z" fill="black" stroke="black"/>
<path d="M21.499 27.6135C22.3763 28.2044 23.2118 28.4999 24.004 28.4999C24.7958 28.4999 25.5808 28.2049 26.3586 27.6153" stroke="black" stroke-linecap="round"/>
</svg>
