<svg width="19" height="16" viewBox="0 0 19 16" fill="none" xmlns="http://www.w3.org/2000/svg">
<path d="M3.5 13.0001H3H3.5ZM11.1 1.6H11.6H11.1ZM0.5 0.5C0.223858 0.5 0 0.723858 0 1C0 1.27614 0.223858 1.5 0.5 1.5V0.5ZM0.5 12.4001H1H0.5ZM1.1 13.0001V13.5001V13.0001ZM3.15 13.5001C3.42614 13.5001 3.65 13.2762 3.65 13.0001C3.65 12.724 3.42614 12.5001 3.15 12.5001V13.5001ZM7.55 12.5001C7.27386 12.5001 7.05 12.724 7.05 13.0001C7.05 13.2762 7.27386 13.5001 7.55 13.5001V12.5001ZM11.1 4.20015C10.8239 4.20015 10.6 4.424 10.6 4.70015C10.6 4.97629 10.8239 5.20015 11.1 5.20015V4.20015ZM16.11 4.70015L16.1101 4.20015H16.11V4.70015ZM16.658 5.05615L17.1202 4.86498L17.1148 4.85281L16.658 5.05615ZM18.448 9.3841L17.9858 9.57526L17.9913 9.58771L18.448 9.3841ZM18.5 9.6271H19L19 9.62599L18.5 9.6271ZM16.658 12.5001C16.3819 12.5001 16.158 12.724 16.158 13.0001C16.158 13.2762 16.3819 13.5001 16.658 13.5001V12.5001ZM12 13.5001C12.2761 13.5001 12.5 13.2762 12.5 13.0001C12.5 12.724 12.2761 12.5001 12 12.5001V13.5001ZM1 8.20015C1 7.924 0.776142 7.70015 0.5 7.70015C0.223858 7.70015 0 7.924 0 8.20015H1ZM15.9142 11.5859L15.5607 11.9394L15.9142 11.5859ZM13.0858 11.5859L13.4393 11.9394L13.0858 11.5859ZM13.0858 14.4143L13.4393 14.0608L13.0858 14.4143ZM0.5 3C0.223858 3 0 3.22386 0 3.5C0 3.77614 0.223858 4 0.5 4V3ZM4 4C4.27614 4 4.5 3.77614 4.5 3.5C4.5 3.22386 4.27614 3 4 3V4ZM0.5 5.3C0.223858 5.3 0 5.52386 0 5.8C0 6.07614 0.223858 6.3 0.5 6.3V5.3ZM2.7 6.3C2.97614 6.3 3.2 6.07614 3.2 5.8C3.2 5.52386 2.97614 5.3 2.7 5.3V6.3ZM5.5 15.5001C6.16304 15.5001 6.79893 15.2367 7.26777 14.7679L6.56066 14.0608C6.27936 14.3421 5.89782 14.5001 5.5 14.5001V15.5001ZM7.26777 14.7679C7.73661 14.299 8 13.6631 8 13.0001H7C7 13.3979 6.84196 13.7795 6.56066 14.0608L7.26777 14.7679ZM8 13.0001C8 12.3371 7.73661 11.7012 7.26777 11.2323L6.56066 11.9394C6.84196 12.2207 7 12.6023 7 13.0001H8ZM7.26777 11.2323C6.79893 10.7635 6.16304 10.5001 5.5 10.5001V11.5001C5.89782 11.5001 6.27936 11.6581 6.56066 11.9394L7.26777 11.2323ZM5.5 10.5001C4.83696 10.5001 4.20107 10.7635 3.73223 11.2323L4.43934 11.9394C4.72064 11.6581 5.10218 11.5001 5.5 11.5001V10.5001ZM3.73223 11.2323C3.26339 11.7012 3 12.3371 3 13.0001H4C4 12.6023 4.15804 12.2207 4.43934 11.9394L3.73223 11.2323ZM3 13.0001C3 13.6631 3.26339 14.299 3.73223 14.7679L4.43934 14.0608C4.15804 13.7795 4 13.3979 4 13.0001H3ZM3.73223 14.7679C4.20107 15.2367 4.83696 15.5001 5.5 15.5001V14.5001C5.10218 14.5001 4.72064 14.3421 4.43934 14.0608L3.73223 14.7679ZM11.6 1.6C11.6 1.30826 11.4841 1.02847 11.2778 0.822183L10.5707 1.52929C10.5895 1.54804 10.6 1.57348 10.6 1.6H11.6ZM11.2778 0.822183C11.0715 0.615892 10.7917 0.5 10.5 0.5V1.5C10.5265 1.5 10.552 1.51054 10.5707 1.52929L11.2778 0.822183ZM10.5 0.5H0.5V1.5H10.5V0.5ZM0 12.4001C0 12.5445 0.0284519 12.6876 0.0837324 12.821L1.00761 12.4384C1.00259 12.4262 1 12.4132 1 12.4001H0ZM0.0837324 12.821C0.139012 12.9545 0.220038 13.0758 0.322183 13.1779L1.02929 12.4708C1.02 12.4615 1.01264 12.4505 1.00761 12.4384L0.0837324 12.821ZM0.322183 13.1779C0.424326 13.2801 0.545589 13.3611 0.679048 13.4164L1.06173 12.4925C1.0496 12.4875 1.03858 12.4801 1.02929 12.4708L0.322183 13.1779ZM0.679048 13.4164C0.81251 13.4716 0.955549 13.5001 1.1 13.5001V12.5001C1.08686 12.5001 1.07386 12.4975 1.06173 12.4925L0.679048 13.4164ZM1.1 13.5001H3.15V12.5001H1.1V13.5001ZM11.1 12.5001H7.55V13.5001H11.1V12.5001ZM11.1 5.20015H16.11V4.20015H11.1V5.20015ZM16.1099 5.20015C16.1292 5.20015 16.1481 5.20576 16.1643 5.21629L16.7091 4.3777C16.5308 4.26187 16.3227 4.2002 16.1101 4.20015L16.1099 5.20015ZM16.1643 5.21629C16.1805 5.22682 16.1934 5.24182 16.2012 5.25948L17.1148 4.85281C17.0283 4.65856 16.8874 4.49354 16.7091 4.3777L16.1643 5.21629ZM16.196 5.24724L17.986 9.57519L18.91 9.193L17.12 4.86505L16.196 5.24724ZM17.9913 9.58771C17.997 9.60045 18 9.61425 18 9.62821L19 9.62599C18.9997 9.47246 18.9672 9.32071 18.9047 9.18049L17.9913 9.58771ZM18 9.6271V12.4001H19V9.6271H18ZM18 12.4001C18 12.4132 17.9974 12.4262 17.9924 12.4384L18.9163 12.821C18.9715 12.6876 19 12.5445 19 12.4001H18ZM17.9924 12.4384C17.9874 12.4505 17.98 12.4615 17.9707 12.4708L18.6778 13.1779C18.78 13.0758 18.861 12.9545 18.9163 12.821L17.9924 12.4384ZM17.9707 12.4708C17.9614 12.4801 17.9504 12.4875 17.9383 12.4925L18.321 13.4164C18.4544 13.3611 18.5757 13.2801 18.6778 13.1779L17.9707 12.4708ZM17.9383 12.4925C17.9261 12.4975 17.9131 12.5001 17.9 12.5001V13.5001C18.0445 13.5001 18.1875 13.4716 18.321 13.4164L17.9383 12.4925ZM17.9 12.5001H16.658V13.5001H17.9V12.5001ZM11.1 13.5001H12V12.5001H11.1V13.5001ZM11.1 13.0001C11.6 13.0001 11.6 13.0001 11.6 13.0001C11.6 13 11.6 13 11.6 12.9999C11.6 12.9999 11.6 12.9998 11.6 12.9997C11.6 12.9997 11.6 12.9996 11.6 12.9995C11.6 12.9994 11.6 12.9992 11.6 12.9991C11.6 12.999 11.6 12.9988 11.6 12.9987C11.6 12.9985 11.6 12.9983 11.6 12.9982C11.6 12.998 11.6 12.9978 11.6 12.9976C11.6 12.9974 11.6 12.9971 11.6 12.9969C11.6 12.9967 11.6 12.9964 11.6 12.9962C11.6 12.9959 11.6 12.9956 11.6 12.9953C11.6 12.9951 11.6 12.9948 11.6 12.9944C11.6 12.9941 11.6 12.9938 11.6 12.9935C11.6 12.9931 11.6 12.9928 11.6 12.9924C11.6 12.9921 11.6 12.9917 11.6 12.9913C11.6 12.9909 11.6 12.9905 11.6 12.9901C11.6 12.9897 11.6 12.9892 11.6 12.9888C11.6 12.9884 11.6 12.9879 11.6 12.9874C11.6 12.987 11.6 12.9865 11.6 12.986C11.6 12.9855 11.6 12.985 11.6 12.9845C11.6 12.984 11.6 12.9835 11.6 12.9829C11.6 12.9824 11.6 12.9818 11.6 12.9813C11.6 12.9807 11.6 12.9801 11.6 12.9795C11.6 12.979 11.6 12.9783 11.6 12.9777C11.6 12.9771 11.6 12.9765 11.6 12.9759C11.6 12.9752 11.6 12.9746 11.6 12.9739C11.6 12.9732 11.6 12.9726 11.6 12.9719C11.6 12.9712 11.6 12.9705 11.6 12.9698C11.6 12.9691 11.6 12.9683 11.6 12.9676C11.6 12.9669 11.6 12.9661 11.6 12.9654C11.6 12.9646 11.6 12.9638 11.6 12.963C11.6 12.9622 11.6 12.9614 11.6 12.9606C11.6 12.9598 11.6 12.959 11.6 12.9582C11.6 12.9573 11.6 12.9565 11.6 12.9556C11.6 12.9548 11.6 12.9539 11.6 12.953C11.6 12.9521 11.6 12.9513 11.6 12.9503C11.6 12.9494 11.6 12.9485 11.6 12.9476C11.6 12.9467 11.6 12.9457 11.6 12.9448C11.6 12.9438 11.6 12.9429 11.6 12.9419C11.6 12.9409 11.6 12.9399 11.6 12.9389C11.6 12.9379 11.6 12.9369 11.6 12.9359C11.6 12.9349 11.6 12.9338 11.6 12.9328C11.6 12.9317 11.6 12.9307 11.6 12.9296C11.6 12.9285 11.6 12.9274 11.6 12.9263C11.6 12.9253 11.6 12.9241 11.6 12.923C11.6 12.9219 11.6 12.9208 11.6 12.9196C11.6 12.9185 11.6 12.9174 11.6 12.9162C11.6 12.915 11.6 12.9139 11.6 12.9127C11.6 12.9115 11.6 12.9103 11.6 12.9091C11.6 12.9079 11.6 12.9066 11.6 12.9054C11.6 12.9042 11.6 12.9029 11.6 12.9017C11.6 12.9004 11.6 12.8992 11.6 12.8979C11.6 12.8966 11.6 12.8953 11.6 12.894C11.6 12.8927 11.6 12.8914 11.6 12.8901C11.6 12.8888 11.6 12.8874 11.6 12.8861C11.6 12.8847 11.6 12.8834 11.6 12.882C11.6 12.8806 11.6 12.8793 11.6 12.8779C11.6 12.8765 11.6 12.8751 11.6 12.8737C11.6 12.8723 11.6 12.8708 11.6 12.8694C11.6 12.868 11.6 12.8665 11.6 12.8651C11.6 12.8636 11.6 12.8621 11.6 12.8607C11.6 12.8592 11.6 12.8577 11.6 12.8562C11.6 12.8547 11.6 12.8532 11.6 12.8517C11.6 12.8501 11.6 12.8486 11.6 12.8471C11.6 12.8455 11.6 12.844 11.6 12.8424C11.6 12.8408 11.6 12.8393 11.6 12.8377C11.6 12.8361 11.6 12.8345 11.6 12.8329C11.6 12.8313 11.6 12.8296 11.6 12.828C11.6 12.8264 11.6 12.8247 11.6 12.8231C11.6 12.8214 11.6 12.8198 11.6 12.8181C11.6 12.8164 11.6 12.8147 11.6 12.813C11.6 12.8114 11.6 12.8096 11.6 12.8079C11.6 12.8062 11.6 12.8045 11.6 12.8027C11.6 12.801 11.6 12.7993 11.6 12.7975C11.6 12.7957 11.6 12.794 11.6 12.7922C11.6 12.7904 11.6 12.7886 11.6 12.7868C11.6 12.785 11.6 12.7832 11.6 12.7814C11.6 12.7796 11.6 12.7777 11.6 12.7759C11.6 12.7741 11.6 12.7722 11.6 12.7703C11.6 12.7685 11.6 12.7666 11.6 12.7647C11.6 12.7628 11.6 12.7609 11.6 12.759C11.6 12.7571 11.6 12.7552 11.6 12.7533C11.6 12.7514 11.6 12.7494 11.6 12.7475C11.6 12.7456 11.6 12.7436 11.6 12.7416C11.6 12.7397 11.6 12.7377 11.6 12.7357C11.6 12.7337 11.6 12.7317 11.6 12.7297C11.6 12.7277 11.6 12.7257 11.6 12.7237C11.6 12.7216 11.6 12.7196 11.6 12.7176C11.6 12.7155 11.6 12.7135 11.6 12.7114C11.6 12.7093 11.6 12.7073 11.6 12.7052C11.6 12.7031 11.6 12.701 11.6 12.6989C11.6 12.6968 11.6 12.6947 11.6 12.6925C11.6 12.6904 11.6 12.6883 11.6 12.6861C11.6 12.684 11.6 12.6818 11.6 12.6797C11.6 12.6775 11.6 12.6753 11.6 12.6731C11.6 12.671 11.6 12.6688 11.6 12.6666C11.6 12.6643 11.6 12.6621 11.6 12.6599C11.6 12.6577 11.6 12.6555 11.6 12.6532C11.6 12.651 11.6 12.6487 11.6 12.6465C11.6 12.6442 11.6 12.6419 11.6 12.6396C11.6 12.6374 11.6 12.6351 11.6 12.6328C11.6 12.6305 11.6 12.6282 11.6 12.6258C11.6 12.6235 11.6 12.6212 11.6 12.6189C11.6 12.6165 11.6 12.6142 11.6 12.6118C11.6 12.6095 11.6 12.6071 11.6 12.6047C11.6 12.6023 11.6 12.5999 11.6 12.5976C11.6 12.5952 11.6 12.5928 11.6 12.5903C11.6 12.5879 11.6 12.5855 11.6 12.5831C11.6 12.5806 11.6 12.5782 11.6 12.5757C11.6 12.5733 11.6 12.5708 11.6 12.5684C11.6 12.5659 11.6 12.5634 11.6 12.5609C11.6 12.5584 11.6 12.556 11.6 12.5534C11.6 12.5509 11.6 12.5484 11.6 12.5459C11.6 12.5434 11.6 12.5408 11.6 12.5383C11.6 12.5358 11.6 12.5332 11.6 12.5306C11.6 12.5281 11.6 12.5255 11.6 12.5229C11.6 12.5204 11.6 12.5178 11.6 12.5152C11.6 12.5126 11.6 12.51 11.6 12.5074C11.6 12.5047 11.6 12.5021 11.6 12.4995C11.6 12.4969 11.6 12.4942 11.6 12.4916C11.6 12.4889 11.6 12.4863 11.6 12.4836C11.6 12.4809 11.6 12.4783 11.6 12.4756C11.6 12.4729 11.6 12.4702 11.6 12.4675C11.6 12.4648 11.6 12.4621 11.6 12.4594C11.6 12.4566 11.6 12.4539 11.6 12.4512C11.6 12.4484 11.6 12.4457 11.6 12.4429C11.6 12.4402 11.6 12.4374 11.6 12.4346C11.6 12.4319 11.6 12.4291 11.6 12.4263C11.6 12.4235 11.6 12.4207 11.6 12.4179C11.6 12.4151 11.6 12.4123 11.6 12.4095C11.6 12.4066 11.6 12.4038 11.6 12.401C11.6 12.3981 11.6 12.3953 11.6 12.3924C11.6 12.3896 11.6 12.3867 11.6 12.3838C11.6 12.381 11.6 12.3781 11.6 12.3752C11.6 12.3723 11.6 12.3694 11.6 12.3665C11.6 12.3636 11.6 12.3607 11.6 12.3577C11.6 12.3548 11.6 12.3519 11.6 12.349C11.6 12.346 11.6 12.3431 11.6 12.3401C11.6 12.3372 11.6 12.3342 11.6 12.3312C11.6 12.3282 11.6 12.3253 11.6 12.3223C11.6 12.3193 11.6 12.3163 11.6 12.3133C11.6 12.3103 11.6 12.3073 11.6 12.3042C11.6 12.3012 11.6 12.2982 11.6 12.2952C11.6 12.2921 11.6 12.2891 11.6 12.286C11.6 12.283 11.6 12.2799 11.6 12.2768C11.6 12.2738 11.6 12.2707 11.6 12.2676C11.6 12.2645 11.6 12.2614 11.6 12.2583C11.6 12.2552 11.6 12.2521 11.6 12.249C11.6 12.2459 11.6 12.2428 11.6 12.2396C11.6 12.2365 11.6 12.2334 11.6 12.2302C11.6 12.2271 11.6 12.2239 11.6 12.2207C11.6 12.2176 11.6 12.2144 11.6 12.2112C11.6 12.2081 11.6 12.2049 11.6 12.2017C11.6 12.1985 11.6 12.1953 11.6 12.1921C11.6 12.1889 11.6 12.1856 11.6 12.1824C11.6 12.1792 11.6 12.176 11.6 12.1727C11.6 12.1695 11.6 12.1662 11.6 12.163C11.6 12.1597 11.6 12.1565 11.6 12.1532C11.6 12.1499 11.6 12.1467 11.6 12.1434C11.6 12.1401 11.6 12.1368 11.6 12.1335C11.6 12.1302 11.6 12.1269 11.6 12.1236C11.6 12.1203 11.6 12.1169 11.6 12.1136C11.6 12.1103 11.6 12.1069 11.6 12.1036C11.6 12.1003 11.6 12.0969 11.6 12.0936C11.6 12.0902 11.6 12.0868 11.6 12.0835C11.6 12.0801 11.6 12.0767 11.6 12.0733C11.6 12.0699 11.6 12.0665 11.6 12.0631C11.6 12.0597 11.6 12.0563 11.6 12.0529C11.6 12.0495 11.6 12.0461 11.6 12.0427C11.6 12.0392 11.6 12.0358 11.6 12.0324C11.6 12.0289 11.6 12.0255 11.6 12.022C11.6 12.0185 11.6 12.0151 11.6 12.0116C11.6 12.0081 11.6 12.0047 11.6 12.0012C11.6 11.9977 11.6 11.9942 11.6 11.9907C11.6 11.9872 11.6 11.9837 11.6 11.9802C11.6 11.9767 11.6 11.9732 11.6 11.9696C11.6 11.9661 11.6 11.9626 11.6 11.959C11.6 11.9555 11.6 11.9519 11.6 11.9484C11.6 11.9448 11.6 11.9413 11.6 11.9377C11.6 11.9341 11.6 11.9306 11.6 11.927C11.6 11.9234 11.6 11.9198 11.6 11.9162C11.6 11.9126 11.6 11.909 11.6 11.9054C11.6 11.9018 11.6 11.8982 11.6 11.8946C11.6 11.891 11.6 11.8874 11.6 11.8837C11.6 11.8801 11.6 11.8765 11.6 11.8728C11.6 11.8692 11.6 11.8655 11.6 11.8619C11.6 11.8582 11.6 11.8545 11.6 11.8509C11.6 11.8472 11.6 11.8435 11.6 11.8398C11.6 11.8361 11.6 11.8325 11.6 11.8288C11.6 11.8251 11.6 11.8214 11.6 11.8177C11.6 11.8139 11.6 11.8102 11.6 11.8065C11.6 11.8028 11.6 11.7991 11.6 11.7953C11.6 11.7916 11.6 11.7878 11.6 11.7841C11.6 11.7804 11.6 11.7766 11.6 11.7728C11.6 11.7691 11.6 11.7653 11.6 11.7616C11.6 11.7578 11.6 11.754 11.6 11.7502C11.6 11.7464 11.6 11.7426 11.6 11.7389C11.6 11.7351 11.6 11.7313 11.6 11.7275C11.6 11.7236 11.6 11.7198 11.6 11.716C11.6 11.7122 11.6 11.7084 11.6 11.7045C11.6 11.7007 11.6 11.6969 11.6 11.693C11.6 11.6892 11.6 11.6853 11.6 11.6815C11.6 11.6776 11.6 11.6738 11.6 11.6699C11.6 11.666 11.6 11.6622 11.6 11.6583C11.6 11.6544 11.6 11.6505 11.6 11.6466C11.6 11.6427 11.6 11.6388 11.6 11.6349C11.6 11.631 11.6 11.6271 11.6 11.6232C11.6 11.6193 11.6 11.6154 11.6 11.6115C11.6 11.6075 11.6 11.6036 11.6 11.5997C11.6 11.5958 11.6 11.5918 11.6 11.5879C11.6 11.5839 11.6 11.58 11.6 11.576C11.6 11.5721 11.6 11.5681 11.6 11.5641C11.6 11.5602 11.6 11.5562 11.6 11.5522C11.6 11.5482 11.6 11.5442 11.6 11.5403C11.6 11.5363 11.6 11.5323 11.6 11.5283C11.6 11.5243 11.6 11.5203 11.6 11.5162C11.6 11.5122 11.6 11.5082 11.6 11.5042C11.6 11.5002 11.6 11.4962 11.6 11.4921C11.6 11.4881 11.6 11.484 11.6 11.48C11.6 11.476 11.6 11.4719 11.6 11.4679C11.6 11.4638 11.6 11.4598 11.6 11.4557C11.6 11.4516 11.6 11.4476 11.6 11.4435C11.6 11.4394 11.6 11.4353 11.6 11.4312C11.6 11.4272 11.6 11.4231 11.6 11.419C11.6 11.4149 11.6 11.4108 11.6 11.4067C11.6 11.4026 11.6 11.3985 11.6 11.3944C11.6 11.3902 11.6 11.3861 11.6 11.382C11.6 11.3779 11.6 11.3737 11.6 11.3696C11.6 11.3655 11.6 11.3613 11.6 11.3572C11.6 11.353 11.6 11.3489 11.6 11.3447C11.6 11.3406 11.6 11.3364 11.6 11.3323C11.6 11.3281 11.6 11.3239 11.6 11.3198C11.6 11.3156 11.6 11.3114 11.6 11.3072C11.6 11.3031 11.6 11.2989 11.6 11.2947C11.6 11.2905 11.6 11.2863 11.6 11.2821C11.6 11.2779 11.6 11.2737 11.6 11.2695C11.6 11.2653 11.6 11.261 11.6 11.2568C11.6 11.2526 11.6 11.2484 11.6 11.2442C11.6 11.2399 11.6 11.2357 11.6 11.2315C11.6 11.2272 11.6 11.223 11.6 11.2187C11.6 11.2145 11.6 11.2102 11.6 11.206C11.6 11.2017 11.6 11.1975 11.6 11.1932C11.6 11.1889 11.6 11.1847 11.6 11.1804C11.6 11.1761 11.6 11.1719 11.6 11.1676C11.6 11.1633 11.6 11.159 11.6 11.1547C11.6 11.1504 11.6 11.1461 11.6 11.1418C11.6 11.1375 11.6 11.1332 11.6 11.1289C11.6 11.1246 11.6 11.1203 11.6 11.116C11.6 11.1117 11.6 11.1074 11.6 11.103C11.6 11.0987 11.6 11.0944 11.6 11.09C11.6 11.0857 11.6 11.0814 11.6 11.077C11.6 11.0727 11.6 11.0684 11.6 11.064C11.6 11.0597 11.6 11.0553 11.6 11.051C11.6 11.0466 11.6 11.0422 11.6 11.0379C11.6 11.0335 11.6 11.0291 11.6 11.0248C11.6 11.0204 11.6 11.016 11.6 11.0116C11.6 11.0073 11.6 11.0029 11.6 10.9985C11.6 10.9941 11.6 10.9897 11.6 10.9853C11.6 10.9809 11.6 10.9765 11.6 10.9721C11.6 10.9677 11.6 10.9633 11.6 10.9589C11.6 10.9545 11.6 10.9501 11.6 10.9457C11.6 10.9412 11.6 10.9368 11.6 10.9324C11.6 10.928 11.6 10.9236 11.6 10.9191C11.6 10.9147 11.6 10.9103 11.6 10.9058C11.6 10.9014 11.6 10.8969 11.6 10.8925C11.6 10.888 11.6 10.8836 11.6 10.8791C11.6 10.8747 11.6 10.8702 11.6 10.8658C11.6 10.8613 11.6 10.8568 11.6 10.8524C11.6 10.8479 11.6 10.8434 11.6 10.839C11.6 10.8345 11.6 10.83 11.6 10.8255C11.6 10.821 11.6 10.8166 11.6 10.8121C11.6 10.8076 11.6 10.8031 11.6 10.7986C11.6 10.7941 11.6 10.7896 11.6 10.7851C11.6 10.7806 11.6 10.7761 11.6 10.7716C11.6 10.7671 11.6 10.7626 11.6 10.7581C11.6 10.7536 11.6 10.749 11.6 10.7445C11.6 10.74 11.6 10.7355 11.6 10.731C11.6 10.7264 11.6 10.7219 11.6 10.7174C11.6 10.7128 11.6 10.7083 11.6 10.7038C11.6 10.6992 11.6 10.6947 11.6 10.6901C11.6 10.6856 11.6 10.681 11.6 10.6765C11.6 10.6719 11.6 10.6674 11.6 10.6628C11.6 10.6583 11.6 10.6537 11.6 10.6492C11.6 10.6446 11.6 10.64 11.6 10.6355C11.6 10.6309 11.6 10.6263 11.6 10.6217C11.6 10.6172 11.6 10.6126 11.6 10.608C11.6 10.6034 11.6 10.5989 11.6 10.5943C11.6 10.5897 11.6 10.5851 11.6 10.5805C11.6 10.5759 11.6 10.5713 11.6 10.5667C11.6 10.5621 11.6 10.5575 11.6 10.5529C11.6 10.5483 11.6 10.5437 11.6 10.5391C11.6 10.5345 11.6 10.5299 11.6 10.5253C11.6 10.5207 11.6 10.5161 11.6 10.5115C11.6 10.5069 11.6 10.5022 11.6 10.4976C11.6 10.493 11.6 10.4884 11.6 10.4837C11.6 10.4791 11.6 10.4745 11.6 10.4699C11.6 10.4652 11.6 10.4606 11.6 10.456C11.6 10.4513 11.6 10.4467 11.6 10.442C11.6 10.4374 11.6 10.4328 11.6 10.4281C11.6 10.4235 11.6 10.4188 11.6 10.4142C11.6 10.4095 11.6 10.4049 11.6 10.4002C11.6 10.3956 11.6 10.3909 11.6 10.3862C11.6 10.3816 11.6 10.3769 11.6 10.3723C11.6 10.3676 11.6 10.3629 11.6 10.3583C11.6 10.3536 11.6 10.3489 11.6 10.3443C11.6 10.3396 11.6 10.3349 11.6 10.3302C11.6 10.3256 11.6 10.3209 11.6 10.3162C11.6 10.3115 11.6 10.3068 11.6 10.3022C11.6 10.2975 11.6 10.2928 11.6 10.2881C11.6 10.2834 11.6 10.2787 11.6 10.274C11.6 10.2694 11.6 10.2647 11.6 10.26C11.6 10.2553 11.6 10.2506 11.6 10.2459C11.6 10.2412 11.6 10.2365 11.6 10.2318C11.6 10.2271 11.6 10.2224 11.6 10.2177C11.6 10.213 11.6 10.2082 11.6 10.2035C11.6 10.1988 11.6 10.1941 11.6 10.1894C11.6 10.1847 11.6 10.18 11.6 10.1753C11.6 10.1705 11.6 10.1658 11.6 10.1611C11.6 10.1564 11.6 10.1517 11.6 10.1469C11.6 10.1422 11.6 10.1375 11.6 10.1328C11.6 10.128 11.6 10.1233 11.6 10.1186C11.6 10.1139 11.6 10.1091 11.6 10.1044C11.6 10.0997 11.6 10.0949 11.6 10.0902C11.6 10.0855 11.6 10.0807 11.6 10.076C11.6 10.0713 11.6 10.0665 11.6 10.0618C11.6 10.057 11.6 10.0523 11.6 10.0476C11.6 10.0428 11.6 10.0381 11.6 10.0333C11.6 10.0286 11.6 10.0238 11.6 10.0191C11.6 10.0143 11.6 10.0096 11.6 10.0048C11.6 10.0001 11.6 9.99534 11.6 9.99059C11.6 9.98583 11.6 9.98108 11.6 9.97633C11.6 9.97157 11.6 9.96681 11.6 9.96206C11.6 9.9573 11.6 9.95254 11.6 9.94778C11.6 9.94302 11.6 9.93826 11.6 9.9335C11.6 9.92874 11.6 9.92398 11.6 9.91922C11.6 9.91445 11.6 9.90969 11.6 9.90492C11.6 9.90016 11.6 9.89539 11.6 9.89062C11.6 9.88586 11.6 9.88109 11.6 9.87632C11.6 9.87155 11.6 9.86678 11.6 9.86201C11.6 9.85724 11.6 9.85247 11.6 9.8477C11.6 9.84293 11.6 9.83815 11.6 9.83338C11.6 9.8286 11.6 9.82383 11.6 9.81905C11.6 9.81428 11.6 9.8095 11.6 9.80473C11.6 9.79995 11.6 9.79517 11.6 9.79039C11.6 9.78562 11.6 9.78084 11.6 9.77606C11.6 9.77128 11.6 9.7665 11.6 9.76172C11.6 9.75694 11.6 9.75216 11.6 9.74738C11.6 9.74259 11.6 9.73781 11.6 9.73303C11.6 9.72825 11.6 9.72346 11.6 9.71868C11.6 9.7139 11.6 9.70911 11.6 9.70433C11.6 9.69954 11.6 9.69476 11.6 9.68997C11.6 9.68519 11.6 9.6804 11.6 9.67562C11.6 9.67083 11.6 9.66604 11.6 9.66126C11.6 9.65647 11.6 9.65168 11.6 9.64689C11.6 9.64211 11.6 9.63732 11.6 9.63253C11.6 9.62774 11.6 9.62296 11.6 9.61817C11.6 9.61338 11.6 9.60859 11.6 9.6038C11.6 9.59901 11.6 9.59422 11.6 9.58943C11.6 9.58464 11.6 9.57985 11.6 9.57506C11.6 9.57028 11.6 9.56549 11.6 9.5607C11.6 9.55591 11.6 9.55112 11.6 9.54633C11.6 9.54154 11.6 9.53675 11.6 9.53196C11.6 9.52717 11.6 9.52238 11.6 9.51759C11.6 9.5128 11.6 9.50801 11.6 9.50322C11.6 9.49843 11.6 9.49364 11.6 9.48885C11.6 9.48406 11.6 9.47927 11.6 9.47448C11.6 9.46969 11.6 9.4649 11.6 9.46012C11.6 9.45533 11.6 9.45054 11.6 9.44575C11.6 9.44096 11.6 9.43617 11.6 9.43139C11.6 9.4266 11.6 9.42181 11.6 9.41702C11.6 9.41224 11.6 9.40745 11.6 9.40266C11.6 9.39787 11.6 9.39309 11.6 9.3883C11.6 9.38352 11.6 9.37873 11.6 9.37395C11.6 9.36916 11.6 9.36438 11.6 9.35959C11.6 9.35481 11.6 9.35002 11.6 9.34524C11.6 9.34046 11.6 9.33567 11.6 9.33089C11.6 9.32611 11.6 9.32133 11.6 9.31654C11.6 9.31176 11.6 9.30698 11.6 9.3022C11.6 9.29742 11.6 9.29264 11.6 9.28786C11.6 9.28308 11.6 9.2783 11.6 9.27353C11.6 9.26875 11.6 9.26397 11.6 9.25919C11.6 9.25442 11.6 9.24964 11.6 9.24487C11.6 9.24009 11.6 9.23532 11.6 9.23055C11.6 9.22577 11.6 9.221 11.6 9.21623C11.6 9.21145 11.6 9.20668 11.6 9.20191C11.6 9.19714 11.6 9.19237 11.6 9.1876C11.6 9.18284 11.6 9.17807 11.6 9.1733C11.6 9.16853 11.6 9.16377 11.6 9.159C11.6 9.15424 11.6 9.14948 11.6 9.14471C11.6 9.13995 11.6 9.13519 11.6 9.13043C11.6 9.12566 11.6 9.1209 11.6 9.11615C11.6 9.11139 11.6 9.10663 11.6 9.10187C11.6 9.09712 11.6 9.09236 11.6 9.08761C11.6 9.08285 11.6 9.0781 11.6 9.07335C11.6 9.06859 11.6 9.06384 11.6 9.05909C11.6 9.05434 11.6 9.04959 11.6 9.04485C11.6 9.0401 11.6 9.03535 11.6 9.03061C11.6 9.02586 11.6 9.02112 11.6 9.01638C11.6 9.01164 11.6 9.0069 11.6 9.00216C11.6 8.99742 11.6 8.99268 11.6 8.98794C11.6 8.98321 11.6 8.97847 11.6 8.97374C11.6 8.969 11.6 8.96427 11.6 8.95954C11.6 8.95481 11.6 8.95008 11.6 8.94535C11.6 8.94062 11.6 8.93589 11.6 8.93117C11.6 8.92645 11.6 8.92172 11.6 8.917C11.6 8.91228 11.6 8.90756 11.6 8.90284C11.6 8.89812 11.6 8.8934 11.6 8.88869C11.6 8.88397 11.6 8.87926 11.6 8.87455C11.6 8.86983 11.6 8.86512 11.6 8.86041C11.6 8.85571 11.6 8.851 11.6 8.84629C11.6 8.84159 11.6 8.83688 11.6 8.83218C11.6 8.82748 11.6 8.82278 11.6 8.81808C11.6 8.81338 11.6 8.80869 11.6 8.80399C11.6 8.7993 11.6 8.79461 11.6 8.78992C11.6 8.78523 11.6 8.78054 11.6 8.77585C11.6 8.77116 11.6 8.76648 11.6 8.7618C11.6 8.75711 11.6 8.75243 11.6 8.74775C11.6 8.74307 11.6 8.7384 11.6 8.73372C11.6 8.72905 11.6 8.72438 11.6 8.7197C11.6 8.71503 11.6 8.71037 11.6 8.7057C11.6 8.70103 11.6 8.69637 11.6 8.69171C11.6 8.68704 11.6 8.68238 11.6 8.67773C11.6 8.67307 11.6 8.66841 11.6 8.66376C11.6 8.65911 11.6 8.65445 11.6 8.64981C11.6 8.64516 11.6 8.64051 11.6 8.63587C11.6 8.63122 11.6 8.62658 11.6 8.62194C11.6 8.6173 11.6 8.61266 11.6 8.60803C11.6 8.60339 11.6 8.59876 11.6 8.59413C11.6 8.5895 11.6 8.58487 11.6 8.58025C11.6 8.57562 11.6 8.571 11.6 8.56638C11.6 8.56176 11.6 8.55714 11.6 8.55253C11.6 8.54791 11.6 8.5433 11.6 8.53869C11.6 8.53408 11.6 8.52947 11.6 8.52486C11.6 8.52026 11.6 8.51566 11.6 8.51106C11.6 8.50646 11.6 8.50186 11.6 8.49726C11.6 8.49267 11.6 8.48808 11.6 8.48349C11.6 8.4789 11.6 8.47431 11.6 8.46973C11.6 8.46515 11.6 8.46057 11.6 8.45599C11.6 8.45141 11.6 8.44683 11.6 8.44226C11.6 8.43769 11.6 8.43312 11.6 8.42855C11.6 8.42398 11.6 8.41942 11.6 8.41486C11.6 8.4103 11.6 8.40574 11.6 8.40119C11.6 8.39663 11.6 8.39208 11.6 8.38753C11.6 8.38298 11.6 8.37843 11.6 8.37389C11.6 8.36934 11.6 8.3648 11.6 8.36027C11.6 8.35573 11.6 8.35119 11.6 8.34666C11.6 8.34213 11.6 8.3376 11.6 8.33308C11.6 8.32855 11.6 8.32403 11.6 8.31951C11.6 8.31499 11.6 8.31048 11.6 8.30597C11.6 8.30145 11.6 8.29694 11.6 8.29244C11.6 8.28793 11.6 8.28343 11.6 8.27893C11.6 8.27443 11.6 8.26993 11.6 8.26544C11.6 8.26095 11.6 8.25646 11.6 8.25197C11.6 8.24748 11.6 8.243 11.6 8.23852C11.6 8.23404 11.6 8.22956 11.6 8.22509C11.6 8.22062 11.6 8.21615 11.6 8.21168C11.6 8.20722 11.6 8.20275 11.6 8.19829C11.6 8.19384 11.6 8.18938 11.6 8.18493C11.6 8.18047 11.6 8.17603 11.6 8.17158C11.6 8.16714 11.6 8.16269 11.6 8.15826C11.6 8.15382 11.6 8.14938 11.6 8.14495C11.6 8.14052 11.6 8.13609 11.6 8.13167C11.6 8.12725 11.6 8.12283 11.6 8.11841C11.6 8.11399 11.6 8.10958 11.6 8.10517C11.6 8.10076 11.6 8.09636 11.6 8.09196C11.6 8.08756 11.6 8.08316 11.6 8.07877C11.6 8.07437 11.6 8.06998 11.6 8.0656C11.6 8.06121 11.6 8.05683 11.6 8.05245C11.6 8.04807 11.6 8.0437 11.6 8.03933C11.6 8.03496 11.6 8.03059 11.6 8.02623C11.6 8.02186 11.6 8.0175 11.6 8.01315C11.6 8.00879 11.6 8.00444 11.6 8.0001C11.6 7.99575 11.6 7.99141 11.6 7.98707C11.6 7.98273 11.6 7.9784 11.6 7.97407C11.6 7.96974 11.6 7.96541 11.6 7.96109C11.6 7.95676 11.6 7.95245 11.6 7.94813C11.6 7.94382 11.6 7.93951 11.6 7.9352C11.6 7.9309 11.6 7.9266 11.6 7.9223C11.6 7.918 11.6 7.91371 11.6 7.90942C11.6 7.90513 11.6 7.90085 11.6 7.89657C11.6 7.89229 11.6 7.88801 11.6 7.88374C11.6 7.87947 11.6 7.8752 11.6 7.87094C11.6 7.86668 11.6 7.86242 11.6 7.85816C11.6 7.85391 11.6 7.84966 11.6 7.84542C11.6 7.84117 11.6 7.83693 11.6 7.8327C11.6 7.82846 11.6 7.82423 11.6 7.82C11.6 7.81577 11.6 7.81155 11.6 7.80733C11.6 7.80312 11.6 7.7989 11.6 7.79469C11.6 7.79049 11.6 7.78628 11.6 7.78208C11.6 7.77788 11.6 7.77369 11.6 7.7695C11.6 7.76531 11.6 7.76112 11.6 7.75694C11.6 7.75276 11.6 7.74859 11.6 7.74441C11.6 7.74024 11.6 7.73608 11.6 7.73192C11.6 7.72775 11.6 7.7236 11.6 7.71945C11.6 7.71529 11.6 7.71115 11.6 7.707C11.6 7.70286 11.6 7.69872 11.6 7.69459C11.6 7.69046 11.6 7.68633 11.6 7.68221C11.6 7.67809 11.6 7.67397 11.6 7.66986C11.6 7.66574 11.6 7.66164 11.6 7.65753C11.6 7.65343 11.6 7.64933 11.6 7.64524C11.6 7.64115 11.6 7.63706 11.6 7.63298C11.6 7.62889 11.6 7.62482 11.6 7.62074C11.6 7.61667 11.6 7.6126 11.6 7.60854C11.6 7.60448 11.6 7.60042 11.6 7.59637C11.6 7.59232 11.6 7.58827 11.6 7.58423C11.6 7.58019 11.6 7.57615 11.6 7.57212C11.6 7.56809 11.6 7.56407 11.6 7.56005C11.6 7.55603 11.6 7.55201 11.6 7.548C11.6 7.54399 11.6 7.53999 11.6 7.53599C11.6 7.53199 11.6 7.528 11.6 7.52401C11.6 7.52002 11.6 7.51604 11.6 7.51206C11.6 7.50808 11.6 7.50411 11.6 7.50015H10.6C10.6 7.50411 10.6 7.50808 10.6 7.51206C10.6 7.51604 10.6 7.52002 10.6 7.52401C10.6 7.528 10.6 7.53199 10.6 7.53599C10.6 7.53999 10.6 7.54399 10.6 7.548C10.6 7.55201 10.6 7.55603 10.6 7.56005C10.6 7.56407 10.6 7.56809 10.6 7.57212C10.6 7.57615 10.6 7.58019 10.6 7.58423C10.6 7.58827 10.6 7.59232 10.6 7.59637C10.6 7.60042 10.6 7.60448 10.6 7.60854C10.6 7.6126 10.6 7.61667 10.6 7.62074C10.6 7.62482 10.6 7.62889 10.6 7.63298C10.6 7.63706 10.6 7.64115 10.6 7.64524C10.6 7.64933 10.6 7.65343 10.6 7.65753C10.6 7.66164 10.6 7.66574 10.6 7.66986C10.6 7.67397 10.6 7.67809 10.6 7.68221C10.6 7.68633 10.6 7.69046 10.6 7.69459C10.6 7.69872 10.6 7.70286 10.6 7.707C10.6 7.71115 10.6 7.71529 10.6 7.71945C10.6 7.7236 10.6 7.72775 10.6 7.73192C10.6 7.73608 10.6 7.74024 10.6 7.74441C10.6 7.74859 10.6 7.75276 10.6 7.75694C10.6 7.76112 10.6 7.76531 10.6 7.7695C10.6 7.77369 10.6 7.77788 10.6 7.78208C10.6 7.78628 10.6 7.79049 10.6 7.79469C10.6 7.7989 10.6 7.80312 10.6 7.80733C10.6 7.81155 10.6 7.81577 10.6 7.82C10.6 7.82423 10.6 7.82846 10.6 7.8327C10.6 7.83693 10.6 7.84117 10.6 7.84542C10.6 7.84966 10.6 7.85391 10.6 7.85816C10.6 7.86242 10.6 7.86668 10.6 7.87094C10.6 7.8752 10.6 7.87947 10.6 7.88374C10.6 7.88801 10.6 7.89229 10.6 7.89657C10.6 7.90085 10.6 7.90513 10.6 7.90942C10.6 7.91371 10.6 7.918 10.6 7.9223C10.6 7.9266 10.6 7.9309 10.6 7.9352C10.6 7.93951 10.6 7.94382 10.6 7.94813C10.6 7.95245 10.6 7.95676 10.6 7.96109C10.6 7.96541 10.6 7.96974 10.6 7.97407C10.6 7.9784 10.6 7.98273 10.6 7.98707C10.6 7.99141 10.6 7.99575 10.6 8.0001C10.6 8.00444 10.6 8.00879 10.6 8.01315C10.6 8.0175 10.6 8.02186 10.6 8.02623C10.6 8.03059 10.6 8.03496 10.6 8.03933C10.6 8.0437 10.6 8.04807 10.6 8.05245C10.6 8.05683 10.6 8.06121 10.6 8.0656C10.6 8.06998 10.6 8.07437 10.6 8.07877C10.6 8.08316 10.6 8.08756 10.6 8.09196C10.6 8.09636 10.6 8.10076 10.6 8.10517C10.6 8.10958 10.6 8.11399 10.6 8.11841C10.6 8.12283 10.6 8.12725 10.6 8.13167C10.6 8.13609 10.6 8.14052 10.6 8.14495C10.6 8.14938 10.6 8.15382 10.6 8.15826C10.6 8.16269 10.6 8.16714 10.6 8.17158C10.6 8.17603 10.6 8.18047 10.6 8.18493C10.6 8.18938 10.6 8.19384 10.6 8.19829C10.6 8.20275 10.6 8.20722 10.6 8.21168C10.6 8.21615 10.6 8.22062 10.6 8.22509C10.6 8.22956 10.6 8.23404 10.6 8.23852C10.6 8.243 10.6 8.24748 10.6 8.25197C10.6 8.25646 10.6 8.26095 10.6 8.26544C10.6 8.26993 10.6 8.27443 10.6 8.27893C10.6 8.28343 10.6 8.28793 10.6 8.29244C10.6 8.29694 10.6 8.30145 10.6 8.30597C10.6 8.31048 10.6 8.31499 10.6 8.31951C10.6 8.32403 10.6 8.32855 10.6 8.33308C10.6 8.3376 10.6 8.34213 10.6 8.34666C10.6 8.35119 10.6 8.35573 10.6 8.36027C10.6 8.3648 10.6 8.36934 10.6 8.37389C10.6 8.37843 10.6 8.38298 10.6 8.38753C10.6 8.39208 10.6 8.39663 10.6 8.40119C10.6 8.40574 10.6 8.4103 10.6 8.41486C10.6 8.41942 10.6 8.42398 10.6 8.42855C10.6 8.43312 10.6 8.43769 10.6 8.44226C10.6 8.44683 10.6 8.45141 10.6 8.45599C10.6 8.46057 10.6 8.46515 10.6 8.46973C10.6 8.47431 10.6 8.4789 10.6 8.48349C10.6 8.48808 10.6 8.49267 10.6 8.49726C10.6 8.50186 10.6 8.50646 10.6 8.51106C10.6 8.51566 10.6 8.52026 10.6 8.52486C10.6 8.52947 10.6 8.53408 10.6 8.53869C10.6 8.5433 10.6 8.54791 10.6 8.55253C10.6 8.55714 10.6 8.56176 10.6 8.56638C10.6 8.571 10.6 8.57562 10.6 8.58025C10.6 8.58487 10.6 8.5895 10.6 8.59413C10.6 8.59876 10.6 8.60339 10.6 8.60803C10.6 8.61266 10.6 8.6173 10.6 8.62194C10.6 8.62658 10.6 8.63122 10.6 8.63587C10.6 8.64051 10.6 8.64516 10.6 8.64981C10.6 8.65445 10.6 8.65911 10.6 8.66376C10.6 8.66841 10.6 8.67307 10.6 8.67773C10.6 8.68238 10.6 8.68704 10.6 8.69171C10.6 8.69637 10.6 8.70103 10.6 8.7057C10.6 8.71037 10.6 8.71503 10.6 8.7197C10.6 8.72438 10.6 8.72905 10.6 8.73372C10.6 8.7384 10.6 8.74307 10.6 8.74775C10.6 8.75243 10.6 8.75711 10.6 8.7618C10.6 8.76648 10.6 8.77116 10.6 8.77585C10.6 8.78054 10.6 8.78523 10.6 8.78992C10.6 8.79461 10.6 8.7993 10.6 8.80399C10.6 8.80869 10.6 8.81338 10.6 8.81808C10.6 8.82278 10.6 8.82748 10.6 8.83218C10.6 8.83688 10.6 8.84159 10.6 8.84629C10.6 8.851 10.6 8.85571 10.6 8.86041C10.6 8.86512 10.6 8.86983 10.6 8.87455C10.6 8.87926 10.6 8.88397 10.6 8.88869C10.6 8.8934 10.6 8.89812 10.6 8.90284C10.6 8.90756 10.6 8.91228 10.6 8.917C10.6 8.92172 10.6 8.92645 10.6 8.93117C10.6 8.93589 10.6 8.94062 10.6 8.94535C10.6 8.95008 10.6 8.95481 10.6 8.95954C10.6 8.96427 10.6 8.969 10.6 8.97374C10.6 8.97847 10.6 8.98321 10.6 8.98794C10.6 8.99268 10.6 8.99742 10.6 9.00216C10.6 9.0069 10.6 9.01164 10.6 9.01638C10.6 9.02112 10.6 9.02586 10.6 9.03061C10.6 9.03535 10.6 9.0401 10.6 9.04485C10.6 9.04959 10.6 9.05434 10.6 9.05909C10.6 9.06384 10.6 9.06859 10.6 9.07335C10.6 9.0781 10.6 9.08285 10.6 9.08761C10.6 9.09236 10.6 9.09712 10.6 9.10187C10.6 9.10663 10.6 9.11139 10.6 9.11615C10.6 9.1209 10.6 9.12566 10.6 9.13043C10.6 9.13519 10.6 9.13995 10.6 9.14471C10.6 9.14948 10.6 9.15424 10.6 9.159C10.6 9.16377 10.6 9.16853 10.6 9.1733C10.6 9.17807 10.6 9.18284 10.6 9.1876C10.6 9.19237 10.6 9.19714 10.6 9.20191C10.6 9.20668 10.6 9.21145 10.6 9.21623C10.6 9.221 10.6 9.22577 10.6 9.23055C10.6 9.23532 10.6 9.24009 10.6 9.24487C10.6 9.24964 10.6 9.25442 10.6 9.25919C10.6 9.26397 10.6 9.26875 10.6 9.27353C10.6 9.2783 10.6 9.28308 10.6 9.28786C10.6 9.29264 10.6 9.29742 10.6 9.3022C10.6 9.30698 10.6 9.31176 10.6 9.31654C10.6 9.32133 10.6 9.32611 10.6 9.33089C10.6 9.33567 10.6 9.34046 10.6 9.34524C10.6 9.35002 10.6 9.35481 10.6 9.35959C10.6 9.36438 10.6 9.36916 10.6 9.37395C10.6 9.37873 10.6 9.38352 10.6 9.3883C10.6 9.39309 10.6 9.39787 10.6 9.40266C10.6 9.40745 10.6 9.41224 10.6 9.41702C10.6 9.42181 10.6 9.4266 10.6 9.43139C10.6 9.43617 10.6 9.44096 10.6 9.44575C10.6 9.45054 10.6 9.45533 10.6 9.46012C10.6 9.4649 10.6 9.46969 10.6 9.47448C10.6 9.47927 10.6 9.48406 10.6 9.48885C10.6 9.49364 10.6 9.49843 10.6 9.50322C10.6 9.50801 10.6 9.5128 10.6 9.51759C10.6 9.52238 10.6 9.52717 10.6 9.53196C10.6 9.53675 10.6 9.54154 10.6 9.54633C10.6 9.55112 10.6 9.55591 10.6 9.5607C10.6 9.56549 10.6 9.57028 10.6 9.57506C10.6 9.57985 10.6 9.58464 10.6 9.58943C10.6 9.59422 10.6 9.59901 10.6 9.6038C10.6 9.60859 10.6 9.61338 10.6 9.61817C10.6 9.62296 10.6 9.62774 10.6 9.63253C10.6 9.63732 10.6 9.64211 10.6 9.64689C10.6 9.65168 10.6 9.65647 10.6 9.66126C10.6 9.66604 10.6 9.67083 10.6 9.67562C10.6 9.6804 10.6 9.68519 10.6 9.68997C10.6 9.69476 10.6 9.69954 10.6 9.70433C10.6 9.70911 10.6 9.7139 10.6 9.71868C10.6 9.72346 10.6 9.72825 10.6 9.73303C10.6 9.73781 10.6 9.74259 10.6 9.74738C10.6 9.75216 10.6 9.75694 10.6 9.76172C10.6 9.7665 10.6 9.77128 10.6 9.77606C10.6 9.78084 10.6 9.78562 10.6 9.79039C10.6 9.79517 10.6 9.79995 10.6 9.80473C10.6 9.8095 10.6 9.81428 10.6 9.81905C10.6 9.82383 10.6 9.8286 10.6 9.83338C10.6 9.83815 10.6 9.84293 10.6 9.8477C10.6 9.85247 10.6 9.85724 10.6 9.86201C10.6 9.86678 10.6 9.87155 10.6 9.87632C10.6 9.88109 10.6 9.88586 10.6 9.89062C10.6 9.89539 10.6 9.90016 10.6 9.90492C10.6 9.90969 10.6 9.91445 10.6 9.91922C10.6 9.92398 10.6 9.92874 10.6 9.9335C10.6 9.93826 10.6 9.94302 10.6 9.94778C10.6 9.95254 10.6 9.9573 10.6 9.96206C10.6 9.96681 10.6 9.97157 10.6 9.97633C10.6 9.98108 10.6 9.98583 10.6 9.99059C10.6 9.99534 10.6 10.0001 10.6 10.0048C10.6 10.0096 10.6 10.0143 10.6 10.0191C10.6 10.0238 10.6 10.0286 10.6 10.0333C10.6 10.0381 10.6 10.0428 10.6 10.0476C10.6 10.0523 10.6 10.057 10.6 10.0618C10.6 10.0665 10.6 10.0713 10.6 10.076C10.6 10.0807 10.6 10.0855 10.6 10.0902C10.6 10.0949 10.6 10.0997 10.6 10.1044C10.6 10.1091 10.6 10.1139 10.6 10.1186C10.6 10.1233 10.6 10.128 10.6 10.1328C10.6 10.1375 10.6 10.1422 10.6 10.1469C10.6 10.1517 10.6 10.1564 10.6 10.1611C10.6 10.1658 10.6 10.1705 10.6 10.1753C10.6 10.18 10.6 10.1847 10.6 10.1894C10.6 10.1941 10.6 10.1988 10.6 10.2035C10.6 10.2082 10.6 10.213 10.6 10.2177C10.6 10.2224 10.6 10.2271 10.6 10.2318C10.6 10.2365 10.6 10.2412 10.6 10.2459C10.6 10.2506 10.6 10.2553 10.6 10.26C10.6 10.2647 10.6 10.2694 10.6 10.274C10.6 10.2787 10.6 10.2834 10.6 10.2881C10.6 10.2928 10.6 10.2975 10.6 10.3022C10.6 10.3068 10.6 10.3115 10.6 10.3162C10.6 10.3209 10.6 10.3256 10.6 10.3302C10.6 10.3349 10.6 10.3396 10.6 10.3443C10.6 10.3489 10.6 10.3536 10.6 10.3583C10.6 10.3629 10.6 10.3676 10.6 10.3723C10.6 10.3769 10.6 10.3816 10.6 10.3862C10.6 10.3909 10.6 10.3956 10.6 10.4002C10.6 10.4049 10.6 10.4095 10.6 10.4142C10.6 10.4188 10.6 10.4235 10.6 10.4281C10.6 10.4328 10.6 10.4374 10.6 10.442C10.6 10.4467 10.6 10.4513 10.6 10.456C10.6 10.4606 10.6 10.4652 10.6 10.4699C10.6 10.4745 10.6 10.4791 10.6 10.4837C10.6 10.4884 10.6 10.493 10.6 10.4976C10.6 10.5022 10.6 10.5069 10.6 10.5115C10.6 10.5161 10.6 10.5207 10.6 10.5253C10.6 10.5299 10.6 10.5345 10.6 10.5391C10.6 10.5437 10.6 10.5483 10.6 10.5529C10.6 10.5575 10.6 10.5621 10.6 10.5667C10.6 10.5713 10.6 10.5759 10.6 10.5805C10.6 10.5851 10.6 10.5897 10.6 10.5943C10.6 10.5989 10.6 10.6034 10.6 10.608C10.6 10.6126 10.6 10.6172 10.6 10.6217C10.6 10.6263 10.6 10.6309 10.6 10.6355C10.6 10.64 10.6 10.6446 10.6 10.6492C10.6 10.6537 10.6 10.6583 10.6 10.6628C10.6 10.6674 10.6 10.6719 10.6 10.6765C10.6 10.681 10.6 10.6856 10.6 10.6901C10.6 10.6947 10.6 10.6992 10.6 10.7038C10.6 10.7083 10.6 10.7128 10.6 10.7174C10.6 10.7219 10.6 10.7264 10.6 10.731C10.6 10.7355 10.6 10.74 10.6 10.7445C10.6 10.749 10.6 10.7536 10.6 10.7581C10.6 10.7626 10.6 10.7671 10.6 10.7716C10.6 10.7761 10.6 10.7806 10.6 10.7851C10.6 10.7896 10.6 10.7941 10.6 10.7986C10.6 10.8031 10.6 10.8076 10.6 10.8121C10.6 10.8166 10.6 10.821 10.6 10.8255C10.6 10.83 10.6 10.8345 10.6 10.839C10.6 10.8434 10.6 10.8479 10.6 10.8524C10.6 10.8568 10.6 10.8613 10.6 10.8658C10.6 10.8702 10.6 10.8747 10.6 10.8791C10.6 10.8836 10.6 10.888 10.6 10.8925C10.6 10.8969 10.6 10.9014 10.6 10.9058C10.6 10.9103 10.6 10.9147 10.6 10.9191C10.6 10.9236 10.6 10.928 10.6 10.9324C10.6 10.9368 10.6 10.9412 10.6 10.9457C10.6 10.9501 10.6 10.9545 10.6 10.9589C10.6 10.9633 10.6 10.9677 10.6 10.9721C10.6 10.9765 10.6 10.9809 10.6 10.9853C10.6 10.9897 10.6 10.9941 10.6 10.9985C10.6 11.0029 10.6 11.0073 10.6 11.0116C10.6 11.016 10.6 11.0204 10.6 11.0248C10.6 11.0291 10.6 11.0335 10.6 11.0379C10.6 11.0422 10.6 11.0466 10.6 11.051C10.6 11.0553 10.6 11.0597 10.6 11.064C10.6 11.0684 10.6 11.0727 10.6 11.077C10.6 11.0814 10.6 11.0857 10.6 11.09C10.6 11.0944 10.6 11.0987 10.6 11.103C10.6 11.1074 10.6 11.1117 10.6 11.116C10.6 11.1203 10.6 11.1246 10.6 11.1289C10.6 11.1332 10.6 11.1375 10.6 11.1418C10.6 11.1461 10.6 11.1504 10.6 11.1547C10.6 11.159 10.6 11.1633 10.6 11.1676C10.6 11.1719 10.6 11.1761 10.6 11.1804C10.6 11.1847 10.6 11.1889 10.6 11.1932C10.6 11.1975 10.6 11.2017 10.6 11.206C10.6 11.2102 10.6 11.2145 10.6 11.2187C10.6 11.223 10.6 11.2272 10.6 11.2315C10.6 11.2357 10.6 11.2399 10.6 11.2442C10.6 11.2484 10.6 11.2526 10.6 11.2568C10.6 11.261 10.6 11.2653 10.6 11.2695C10.6 11.2737 10.6 11.2779 10.6 11.2821C10.6 11.2863 10.6 11.2905 10.6 11.2947C10.6 11.2989 10.6 11.3031 10.6 11.3072C10.6 11.3114 10.6 11.3156 10.6 11.3198C10.6 11.3239 10.6 11.3281 10.6 11.3323C10.6 11.3364 10.6 11.3406 10.6 11.3447C10.6 11.3489 10.6 11.353 10.6 11.3572C10.6 11.3613 10.6 11.3655 10.6 11.3696C10.6 11.3737 10.6 11.3779 10.6 11.382C10.6 11.3861 10.6 11.3902 10.6 11.3944C10.6 11.3985 10.6 11.4026 10.6 11.4067C10.6 11.4108 10.6 11.4149 10.6 11.419C10.6 11.4231 10.6 11.4272 10.6 11.4312C10.6 11.4353 10.6 11.4394 10.6 11.4435C10.6 11.4476 10.6 11.4516 10.6 11.4557C10.6 11.4598 10.6 11.4638 10.6 11.4679C10.6 11.4719 10.6 11.476 10.6 11.48C10.6 11.484 10.6 11.4881 10.6 11.4921C10.6 11.4962 10.6 11.5002 10.6 11.5042C10.6 11.5082 10.6 11.5122 10.6 11.5162C10.6 11.5203 10.6 11.5243 10.6 11.5283C10.6 11.5323 10.6 11.5363 10.6 11.5403C10.6 11.5442 10.6 11.5482 10.6 11.5522C10.6 11.5562 10.6 11.5602 10.6 11.5641C10.6 11.5681 10.6 11.5721 10.6 11.576C10.6 11.58 10.6 11.5839 10.6 11.5879C10.6 11.5918 10.6 11.5958 10.6 11.5997C10.6 11.6036 10.6 11.6075 10.6 11.6115C10.6 11.6154 10.6 11.6193 10.6 11.6232C10.6 11.6271 10.6 11.631 10.6 11.6349C10.6 11.6388 10.6 11.6427 10.6 11.6466C10.6 11.6505 10.6 11.6544 10.6 11.6583C10.6 11.6622 10.6 11.666 10.6 11.6699C10.6 11.6738 10.6 11.6776 10.6 11.6815C10.6 11.6853 10.6 11.6892 10.6 11.693C10.6 11.6969 10.6 11.7007 10.6 11.7045C10.6 11.7084 10.6 11.7122 10.6 11.716C10.6 11.7198 10.6 11.7236 10.6 11.7275C10.6 11.7313 10.6 11.7351 10.6 11.7389C10.6 11.7426 10.6 11.7464 10.6 11.7502C10.6 11.754 10.6 11.7578 10.6 11.7616C10.6 11.7653 10.6 11.7691 10.6 11.7728C10.6 11.7766 10.6 11.7804 10.6 11.7841C10.6 11.7878 10.6 11.7916 10.6 11.7953C10.6 11.7991 10.6 11.8028 10.6 11.8065C10.6 11.8102 10.6 11.8139 10.6 11.8177C10.6 11.8214 10.6 11.8251 10.6 11.8288C10.6 11.8325 10.6 11.8361 10.6 11.8398C10.6 11.8435 10.6 11.8472 10.6 11.8509C10.6 11.8545 10.6 11.8582 10.6 11.8619C10.6 11.8655 10.6 11.8692 10.6 11.8728C10.6 11.8765 10.6 11.8801 10.6 11.8837C10.6 11.8874 10.6 11.891 10.6 11.8946C10.6 11.8982 10.6 11.9018 10.6 11.9054C10.6 11.909 10.6 11.9126 10.6 11.9162C10.6 11.9198 10.6 11.9234 10.6 11.927C10.6 11.9306 10.6 11.9341 10.6 11.9377C10.6 11.9413 10.6 11.9448 10.6 11.9484C10.6 11.9519 10.6 11.9555 10.6 11.959C10.6 11.9626 10.6 11.9661 10.6 11.9696C10.6 11.9732 10.6 11.9767 10.6 11.9802C10.6 11.9837 10.6 11.9872 10.6 11.9907C10.6 11.9942 10.6 11.9977 10.6 12.0012C10.6 12.0047 10.6 12.0081 10.6 12.0116C10.6 12.0151 10.6 12.0185 10.6 12.022C10.6 12.0255 10.6 12.0289 10.6 12.0324C10.6 12.0358 10.6 12.0392 10.6 12.0427C10.6 12.0461 10.6 12.0495 10.6 12.0529C10.6 12.0563 10.6 12.0597 10.6 12.0631C10.6 12.0665 10.6 12.0699 10.6 12.0733C10.6 12.0767 10.6 12.0801 10.6 12.0835C10.6 12.0868 10.6 12.0902 10.6 12.0936C10.6 12.0969 10.6 12.1003 10.6 12.1036C10.6 12.1069 10.6 12.1103 10.6 12.1136C10.6 12.1169 10.6 12.1203 10.6 12.1236C10.6 12.1269 10.6 12.1302 10.6 12.1335C10.6 12.1368 10.6 12.1401 10.6 12.1434C10.6 12.1467 10.6 12.1499 10.6 12.1532C10.6 12.1565 10.6 12.1597 10.6 12.163C10.6 12.1662 10.6 12.1695 10.6 12.1727C10.6 12.176 10.6 12.1792 10.6 12.1824C10.6 12.1856 10.6 12.1889 10.6 12.1921C10.6 12.1953 10.6 12.1985 10.6 12.2017C10.6 12.2049 10.6 12.2081 10.6 12.2112C10.6 12.2144 10.6 12.2176 10.6 12.2207C10.6 12.2239 10.6 12.2271 10.6 12.2302C10.6 12.2334 10.6 12.2365 10.6 12.2396C10.6 12.2428 10.6 12.2459 10.6 12.249C10.6 12.2521 10.6 12.2552 10.6 12.2583C10.6 12.2614 10.6 12.2645 10.6 12.2676C10.6 12.2707 10.6 12.2738 10.6 12.2768C10.6 12.2799 10.6 12.283 10.6 12.286C10.6 12.2891 10.6 12.2921 10.6 12.2952C10.6 12.2982 10.6 12.3012 10.6 12.3042C10.6 12.3073 10.6 12.3103 10.6 12.3133C10.6 12.3163 10.6 12.3193 10.6 12.3223C10.6 12.3253 10.6 12.3282 10.6 12.3312C10.6 12.3342 10.6 12.3372 10.6 12.3401C10.6 12.3431 10.6 12.346 10.6 12.349C10.6 12.3519 10.6 12.3548 10.6 12.3577C10.6 12.3607 10.6 12.3636 10.6 12.3665C10.6 12.3694 10.6 12.3723 10.6 12.3752C10.6 12.3781 10.6 12.381 10.6 12.3838C10.6 12.3867 10.6 12.3896 10.6 12.3924C10.6 12.3953 10.6 12.3981 10.6 12.401C10.6 12.4038 10.6 12.4066 10.6 12.4095C10.6 12.4123 10.6 12.4151 10.6 12.4179C10.6 12.4207 10.6 12.4235 10.6 12.4263C10.6 12.4291 10.6 12.4319 10.6 12.4346C10.6 12.4374 10.6 12.4402 10.6 12.4429C10.6 12.4457 10.6 12.4484 10.6 12.4512C10.6 12.4539 10.6 12.4566 10.6 12.4594C10.6 12.4621 10.6 12.4648 10.6 12.4675C10.6 12.4702 10.6 12.4729 10.6 12.4756C10.6 12.4783 10.6 12.4809 10.6 12.4836C10.6 12.4863 10.6 12.4889 10.6 12.4916C10.6 12.4942 10.6 12.4969 10.6 12.4995C10.6 12.5021 10.6 12.5047 10.6 12.5074C10.6 12.51 10.6 12.5126 10.6 12.5152C10.6 12.5178 10.6 12.5204 10.6 12.5229C10.6 12.5255 10.6 12.5281 10.6 12.5306C10.6 12.5332 10.6 12.5358 10.6 12.5383C10.6 12.5408 10.6 12.5434 10.6 12.5459C10.6 12.5484 10.6 12.5509 10.6 12.5534C10.6 12.556 10.6 12.5584 10.6 12.5609C10.6 12.5634 10.6 12.5659 10.6 12.5684C10.6 12.5708 10.6 12.5733 10.6 12.5757C10.6 12.5782 10.6 12.5806 10.6 12.5831C10.6 12.5855 10.6 12.5879 10.6 12.5903C10.6 12.5928 10.6 12.5952 10.6 12.5976C10.6 12.5999 10.6 12.6023 10.6 12.6047C10.6 12.6071 10.6 12.6095 10.6 12.6118C10.6 12.6142 10.6 12.6165 10.6 12.6189C10.6 12.6212 10.6 12.6235 10.6 12.6258C10.6 12.6282 10.6 12.6305 10.6 12.6328C10.6 12.6351 10.6 12.6374 10.6 12.6396C10.6 12.6419 10.6 12.6442 10.6 12.6465C10.6 12.6487 10.6 12.651 10.6 12.6532C10.6 12.6555 10.6 12.6577 10.6 12.6599C10.6 12.6621 10.6 12.6643 10.6 12.6666C10.6 12.6688 10.6 12.671 10.6 12.6731C10.6 12.6753 10.6 12.6775 10.6 12.6797C10.6 12.6818 10.6 12.684 10.6 12.6861C10.6 12.6883 10.6 12.6904 10.6 12.6925C10.6 12.6947 10.6 12.6968 10.6 12.6989C10.6 12.701 10.6 12.7031 10.6 12.7052C10.6 12.7073 10.6 12.7093 10.6 12.7114C10.6 12.7135 10.6 12.7155 10.6 12.7176C10.6 12.7196 10.6 12.7216 10.6 12.7237C10.6 12.7257 10.6 12.7277 10.6 12.7297C10.6 12.7317 10.6 12.7337 10.6 12.7357C10.6 12.7377 10.6 12.7397 10.6 12.7416C10.6 12.7436 10.6 12.7456 10.6 12.7475C10.6 12.7494 10.6 12.7514 10.6 12.7533C10.6 12.7552 10.6 12.7571 10.6 12.759C10.6 12.7609 10.6 12.7628 10.6 12.7647C10.6 12.7666 10.6 12.7685 10.6 12.7703C10.6 12.7722 10.6 12.7741 10.6 12.7759C10.6 12.7777 10.6 12.7796 10.6 12.7814C10.6 12.7832 10.6 12.785 10.6 12.7868C10.6 12.7886 10.6 12.7904 10.6 12.7922C10.6 12.794 10.6 12.7957 10.6 12.7975C10.6 12.7993 10.6 12.801 10.6 12.8027C10.6 12.8045 10.6 12.8062 10.6 12.8079C10.6 12.8096 10.6 12.8114 10.6 12.813C10.6 12.8147 10.6 12.8164 10.6 12.8181C10.6 12.8198 10.6 12.8214 10.6 12.8231C10.6 12.8247 10.6 12.8264 10.6 12.828C10.6 12.8296 10.6 12.8313 10.6 12.8329C10.6 12.8345 10.6 12.8361 10.6 12.8377C10.6 12.8393 10.6 12.8408 10.6 12.8424C10.6 12.844 10.6 12.8455 10.6 12.8471C10.6 12.8486 10.6 12.8501 10.6 12.8517C10.6 12.8532 10.6 12.8547 10.6 12.8562C10.6 12.8577 10.6 12.8592 10.6 12.8607C10.6 12.8621 10.6 12.8636 10.6 12.8651C10.6 12.8665 10.6 12.868 10.6 12.8694C10.6 12.8708 10.6 12.8723 10.6 12.8737C10.6 12.8751 10.6 12.8765 10.6 12.8779C10.6 12.8793 10.6 12.8806 10.6 12.882C10.6 12.8834 10.6 12.8847 10.6 12.8861C10.6 12.8874 10.6 12.8888 10.6 12.8901C10.6 12.8914 10.6 12.8927 10.6 12.894C10.6 12.8953 10.6 12.8966 10.6 12.8979C10.6 12.8992 10.6 12.9004 10.6 12.9017C10.6 12.9029 10.6 12.9042 10.6 12.9054C10.6 12.9066 10.6 12.9079 10.6 12.9091C10.6 12.9103 10.6 12.9115 10.6 12.9127C10.6 12.9139 10.6 12.915 10.6 12.9162C10.6 12.9174 10.6 12.9185 10.6 12.9196C10.6 12.9208 10.6 12.9219 10.6 12.923C10.6 12.9241 10.6 12.9253 10.6 12.9263C10.6 12.9274 10.6 12.9285 10.6 12.9296C10.6 12.9307 10.6 12.9317 10.6 12.9328C10.6 12.9338 10.6 12.9349 10.6 12.9359C10.6 12.9369 10.6 12.9379 10.6 12.9389C10.6 12.9399 10.6 12.9409 10.6 12.9419C10.6 12.9429 10.6 12.9438 10.6 12.9448C10.6 12.9457 10.6 12.9467 10.6 12.9476C10.6 12.9485 10.6 12.9494 10.6 12.9503C10.6 12.9513 10.6 12.9521 10.6 12.953C10.6 12.9539 10.6 12.9548 10.6 12.9556C10.6 12.9565 10.6 12.9573 10.6 12.9582C10.6 12.959 10.6 12.9598 10.6 12.9606C10.6 12.9614 10.6 12.9622 10.6 12.963C10.6 12.9638 10.6 12.9646 10.6 12.9654C10.6 12.9661 10.6 12.9669 10.6 12.9676C10.6 12.9683 10.6 12.9691 10.6 12.9698C10.6 12.9705 10.6 12.9712 10.6 12.9719C10.6 12.9726 10.6 12.9732 10.6 12.9739C10.6 12.9746 10.6 12.9752 10.6 12.9759C10.6 12.9765 10.6 12.9771 10.6 12.9777C10.6 12.9783 10.6 12.979 10.6 12.9795C10.6 12.9801 10.6 12.9807 10.6 12.9813C10.6 12.9818 10.6 12.9824 10.6 12.9829C10.6 12.9835 10.6 12.984 10.6 12.9845C10.6 12.985 10.6 12.9855 10.6 12.986C10.6 12.9865 10.6 12.987 10.6 12.9874C10.6 12.9879 10.6 12.9884 10.6 12.9888C10.6 12.9892 10.6 12.9897 10.6 12.9901C10.6 12.9905 10.6 12.9909 10.6 12.9913C10.6 12.9917 10.6 12.9921 10.6 12.9924C10.6 12.9928 10.6 12.9931 10.6 12.9935C10.6 12.9938 10.6 12.9941 10.6 12.9944C10.6 12.9948 10.6 12.9951 10.6 12.9953C10.6 12.9956 10.6 12.9959 10.6 12.9962C10.6 12.9964 10.6 12.9967 10.6 12.9969C10.6 12.9971 10.6 12.9974 10.6 12.9976C10.6 12.9978 10.6 12.998 10.6 12.9982C10.6 12.9983 10.6 12.9985 10.6 12.9987C10.6 12.9988 10.6 12.999 10.6 12.9991C10.6 12.9992 10.6 12.9994 10.6 12.9995C10.6 12.9996 10.6 12.9997 10.6 12.9997C10.6 12.9998 10.6 12.9999 10.6 12.9999C10.6 13 10.6 13 10.6 13.0001C10.6 13.0001 10.6 13.0001 11.1 13.0001ZM11.6 7.50015C11.6 7.49618 11.6 7.49221 11.6 7.48823C11.6 7.48425 11.6 7.48026 11.6 7.47626C11.6 7.47227 11.6 7.46827 11.6 7.46426C11.6 7.46025 11.6 7.45624 11.6 7.45222C11.6 7.4482 11.6 7.44417 11.6 7.44013C11.6 7.4361 11.6 7.43205 11.6 7.42801C11.6 7.42396 11.6 7.4199 11.6 7.41584C11.6 7.41178 11.6 7.40771 11.6 7.40363C11.6 7.39956 11.6 7.39547 11.6 7.39138C11.6 7.38729 11.6 7.3832 11.6 7.3791C11.6 7.37499 11.6 7.37089 11.6 7.36677C11.6 7.36265 11.6 7.35853 11.6 7.3544C11.6 7.35028 11.6 7.34614 11.6 7.342C11.6 7.33786 11.6 7.33371 11.6 7.32956C11.6 7.3254 11.6 7.32124 11.6 7.31707C11.6 7.31291 11.6 7.30873 11.6 7.30455C11.6 7.30037 11.6 7.29619 11.6 7.29199C11.6 7.2878 11.6 7.2836 11.6 7.2794C11.6 7.27519 11.6 7.27098 11.6 7.26677C11.6 7.26255 11.6 7.25832 11.6 7.25409C11.6 7.24986 11.6 7.24563 11.6 7.24139C11.6 7.23714 11.6 7.2329 11.6 7.22864C11.6 7.22439 11.6 7.22013 11.6 7.21586C11.6 7.21159 11.6 7.20732 11.6 7.20304C11.6 7.19876 11.6 7.19448 11.6 7.19019C11.6 7.1859 11.6 7.1816 11.6 7.1773C11.6 7.173 11.6 7.16869 11.6 7.16438C11.6 7.16006 11.6 7.15574 11.6 7.15142C11.6 7.14709 11.6 7.14276 11.6 7.13842C11.6 7.13409 11.6 7.12974 11.6 7.12539C11.6 7.12104 11.6 7.11669 11.6 7.11233C11.6 7.10797 11.6 7.1036 11.6 7.09923C11.6 7.09486 11.6 7.09048 11.6 7.0861C11.6 7.08172 11.6 7.07733 11.6 7.07293C11.6 7.06854 11.6 7.06414 11.6 7.05974C11.6 7.05533 11.6 7.05092 11.6 7.0465C11.6 7.04209 11.6 7.03767 11.6 7.03324C11.6 7.02881 11.6 7.02438 11.6 7.01994C11.6 7.0155 11.6 7.01106 11.6 7.00661C11.6 7.00216 11.6 6.99771 11.6 6.99325C11.6 6.98879 11.6 6.98433 11.6 6.97986C11.6 6.97539 11.6 6.97091 11.6 6.96643C11.6 6.96195 11.6 6.95746 11.6 6.95297C11.6 6.94848 11.6 6.94399 11.6 6.93949C11.6 6.93498 11.6 6.93048 11.6 6.92597C11.6 6.92145 11.6 6.91694 11.6 6.91242C11.6 6.9079 11.6 6.90337 11.6 6.89884C11.6 6.89431 11.6 6.88977 11.6 6.88523C11.6 6.88069 11.6 6.87614 11.6 6.87159C11.6 6.86704 11.6 6.86248 11.6 6.85792C11.6 6.85336 11.6 6.84879 11.6 6.84422C11.6 6.83965 11.6 6.83507 11.6 6.83049C11.6 6.82591 11.6 6.82132 11.6 6.81673C11.6 6.81214 11.6 6.80755 11.6 6.80295C11.6 6.79835 11.6 6.79375 11.6 6.78914C11.6 6.78453 11.6 6.77991 11.6 6.77529C11.6 6.77068 11.6 6.76605 11.6 6.76143C11.6 6.7568 11.6 6.75217 11.6 6.74753C11.6 6.74289 11.6 6.73825 11.6 6.7336C11.6 6.72896 11.6 6.72431 11.6 6.71965C11.6 6.715 11.6 6.71034 11.6 6.70568C11.6 6.70101 11.6 6.69634 11.6 6.69167C11.6 6.687 11.6 6.68232 11.6 6.67764C11.6 6.67296 11.6 6.66827 11.6 6.66358C11.6 6.65889 11.6 6.6542 11.6 6.6495C11.6 6.6448 11.6 6.6401 11.6 6.63539C11.6 6.63069 11.6 6.62598 11.6 6.62126C11.6 6.61655 11.6 6.61183 11.6 6.6071C11.6 6.60238 11.6 6.59765 11.6 6.59292C11.6 6.58819 11.6 6.58345 11.6 6.57871C11.6 6.57397 11.6 6.56923 11.6 6.56448C11.6 6.55973 11.6 6.55498 11.6 6.55022C11.6 6.54547 11.6 6.54071 11.6 6.53595C11.6 6.53118 11.6 6.52641 11.6 6.52164C11.6 6.51687 11.6 6.5121 11.6 6.50732C11.6 6.50254 11.6 6.49775 11.6 6.49297C11.6 6.48818 11.6 6.48339 11.6 6.4786C11.6 6.4738 11.6 6.469 11.6 6.4642C11.6 6.4594 11.6 6.4546 11.6 6.44979C11.6 6.44498 11.6 6.44016 11.6 6.43535C11.6 6.43053 11.6 6.42571 11.6 6.42089C11.6 6.41606 11.6 6.41124 11.6 6.40641C11.6 6.40158 11.6 6.39674 11.6 6.3919C11.6 6.38707 11.6 6.38223 11.6 6.37738C11.6 6.37254 11.6 6.36769 11.6 6.36284C11.6 6.35799 11.6 6.35313 11.6 6.34827C11.6 6.34342 11.6 6.33855 11.6 6.33369C11.6 6.32882 11.6 6.32396 11.6 6.31908C11.6 6.31421 11.6 6.30934 11.6 6.30446C11.6 6.29958 11.6 6.2947 11.6 6.28982C11.6 6.28493 11.6 6.28005 11.6 6.27516C11.6 6.27026 11.6 6.26537 11.6 6.26047C11.6 6.25558 11.6 6.25068 11.6 6.24577C11.6 6.24087 11.6 6.23596 11.6 6.23106C11.6 6.22615 11.6 6.22123 11.6 6.21632C11.6 6.2114 11.6 6.20649 11.6 6.20156C11.6 6.19664 11.6 6.19172 11.6 6.18679C11.6 6.18187 11.6 6.17694 11.6 6.172C11.6 6.16707 11.6 6.16214 11.6 6.1572C11.6 6.15226 11.6 6.14732 11.6 6.14237C11.6 6.13743 11.6 6.13248 11.6 6.12753C11.6 6.12259 11.6 6.11763 11.6 6.11268C11.6 6.10772 11.6 6.10277 11.6 6.09781C11.6 6.09285 11.6 6.08788 11.6 6.08292C11.6 6.07795 11.6 6.07299 11.6 6.06802C11.6 6.06305 11.6 6.05807 11.6 6.0531C11.6 6.04812 11.6 6.04314 11.6 6.03816C11.6 6.03318 11.6 6.0282 11.6 6.02322C11.6 6.01823 11.6 6.01324 11.6 6.00825C11.6 6.00326 11.6 5.99827 11.6 5.99328C11.6 5.98828 11.6 5.98328 11.6 5.97828C11.6 5.97328 11.6 5.96828 11.6 5.96328C11.6 5.95827 11.6 5.95327 11.6 5.94826C11.6 5.94325 11.6 5.93824 11.6 5.93323C11.6 5.92822 11.6 5.9232 11.6 5.91818C11.6 5.91317 11.6 5.90815 11.6 5.90313C11.6 5.89811 11.6 5.89308 11.6 5.88806C11.6 5.88303 11.6 5.878 11.6 5.87297C11.6 5.86794 11.6 5.86291 11.6 5.85788C11.6 5.85285 11.6 5.84781 11.6 5.84277C11.6 5.83774 11.6 5.8327 11.6 5.82766C11.6 5.82262 11.6 5.81757 11.6 5.81253C11.6 5.80748 11.6 5.80244 11.6 5.79739C11.6 5.79234 11.6 5.78729 11.6 5.78224C11.6 5.77719 11.6 5.77213 11.6 5.76708C11.6 5.76202 11.6 5.75697 11.6 5.75191C11.6 5.74685 11.6 5.74179 11.6 5.73673C11.6 5.73166 11.6 5.7266 11.6 5.72154C11.6 5.71647 11.6 5.7114 11.6 5.70634C11.6 5.70127 11.6 5.6962 11.6 5.69113C11.6 5.68606 11.6 5.68098 11.6 5.67591C11.6 5.67084 11.6 5.66576 11.6 5.66068C11.6 5.65561 11.6 5.65053 11.6 5.64545C11.6 5.64037 11.6 5.63529 11.6 5.6302C11.6 5.62512 11.6 5.62004 11.6 5.61495C11.6 5.60987 11.6 5.60478 11.6 5.59969C11.6 5.59461 11.6 5.58952 11.6 5.58443C11.6 5.57934 11.6 5.57425 11.6 5.56916C11.6 5.56406 11.6 5.55897 11.6 5.55387C11.6 5.54878 11.6 5.54368 11.6 5.53859C11.6 5.53349 11.6 5.52839 11.6 5.5233C11.6 5.5182 11.6 5.5131 11.6 5.508C11.6 5.5029 11.6 5.49779 11.6 5.49269C11.6 5.48759 11.6 5.48248 11.6 5.47738C11.6 5.47228 11.6 5.46717 11.6 5.46206C11.6 5.45696 11.6 5.45185 11.6 5.44674C11.6 5.44164 11.6 5.43653 11.6 5.43142C11.6 5.42631 11.6 5.4212 11.6 5.41609C11.6 5.41098 11.6 5.40586 11.6 5.40075C11.6 5.39564 11.6 5.39053 11.6 5.38541C11.6 5.3803 11.6 5.37519 11.6 5.37007C11.6 5.36496 11.6 5.35984 11.6 5.35472C11.6 5.34961 11.6 5.34449 11.6 5.33938C11.6 5.33426 11.6 5.32914 11.6 5.32402C11.6 5.3189 11.6 5.31379 11.6 5.30867C11.6 5.30355 11.6 5.29843 11.6 5.29331C11.6 5.28819 11.6 5.28307 11.6 5.27795C11.6 5.27283 11.6 5.26771 11.6 5.26259C11.6 5.25747 11.6 5.25235 11.6 5.24722C11.6 5.2421 11.6 5.23698 11.6 5.23186C11.6 5.22674 11.6 5.22161 11.6 5.21649C11.6 5.21137 11.6 5.20625 11.6 5.20112C11.6 5.196 11.6 5.19088 11.6 5.18576C11.6 5.18063 11.6 5.17551 11.6 5.17039C11.6 5.16526 11.6 5.16014 11.6 5.15502C11.6 5.14989 11.6 5.14477 11.6 5.13965C11.6 5.13453 11.6 5.1294 11.6 5.12428C11.6 5.11916 11.6 5.11403 11.6 5.10891C11.6 5.10379 11.6 5.09867 11.6 5.09354C11.6 5.08842 11.6 5.0833 11.6 5.07818C11.6 5.07306 11.6 5.06793 11.6 5.06281C11.6 5.05769 11.6 5.05257 11.6 5.04745C11.6 5.04233 11.6 5.03721 11.6 5.03209C11.6 5.02697 11.6 5.02185 11.6 5.01673C11.6 5.01161 11.6 5.00649 11.6 5.00137C11.6 4.99625 11.6 4.99113 11.6 4.98601C11.6 4.9809 11.6 4.97578 11.6 4.97066C11.6 4.96555 11.6 4.96043 11.6 4.95531C11.6 4.9502 11.6 4.94508 11.6 4.93997C11.6 4.93485 11.6 4.92974 11.6 4.92463C11.6 4.91951 11.6 4.9144 11.6 4.90929C11.6 4.90418 11.6 4.89906 11.6 4.89395C11.6 4.88884 11.6 4.88373 11.6 4.87862C11.6 4.87351 11.6 4.86841 11.6 4.8633C11.6 4.85819 11.6 4.85308 11.6 4.84798C11.6 4.84287 11.6 4.83777 11.6 4.83266C11.6 4.82756 11.6 4.82246 11.6 4.81735C11.6 4.81225 11.6 4.80715 11.6 4.80205C11.6 4.79695 11.6 4.79185 11.6 4.78675C11.6 4.78165 11.6 4.77656 11.6 4.77146C11.6 4.76636 11.6 4.76127 11.6 4.75617C11.6 4.75108 11.6 4.74599 11.6 4.74089C11.6 4.7358 11.6 4.73071 11.6 4.72562C11.6 4.72053 11.6 4.71544 11.6 4.71036C11.6 4.70527 11.6 4.70018 11.6 4.6951C11.6 4.69001 11.6 4.68493 11.6 4.67985C11.6 4.67477 11.6 4.66969 11.6 4.66461C11.6 4.65953 11.6 4.65445 11.6 4.64937C11.6 4.6443 11.6 4.63922 11.6 4.63415C11.6 4.62907 11.6 4.624 11.6 4.61893C11.6 4.61386 11.6 4.60879 11.6 4.60372C11.6 4.59866 11.6 4.59359 11.6 4.58853C11.6 4.58346 11.6 4.5784 11.6 4.57334C11.6 4.56828 11.6 4.56322 11.6 4.55816C11.6 4.5531 11.6 4.54804 11.6 4.54299C11.6 4.53793 11.6 4.53288 11.6 4.52783C11.6 4.52278 11.6 4.51773 11.6 4.51268C11.6 4.50763 11.6 4.50259 11.6 4.49754C11.6 4.4925 11.6 4.48746 11.6 4.48242C11.6 4.47738 11.6 4.47234 11.6 4.4673C11.6 4.46226 11.6 4.45723 11.6 4.4522C11.6 4.44716 11.6 4.44213 11.6 4.4371C11.6 4.43207 11.6 4.42705 11.6 4.42202C11.6 4.417 11.6 4.41198 11.6 4.40695C11.6 4.40193 11.6 4.39692 11.6 4.3919C11.6 4.38688 11.6 4.38187 11.6 4.37686C11.6 4.37184 11.6 4.36683 11.6 4.36183C11.6 4.35682 11.6 4.35181 11.6 4.34681C11.6 4.34181 11.6 4.33681 11.6 4.33181C11.6 4.32681 11.6 4.32181 11.6 4.31682C11.6 4.31182 11.6 4.30683 11.6 4.30184C11.6 4.29685 11.6 4.29187 11.6 4.28688C11.6 4.2819 11.6 4.27692 11.6 4.27194C11.6 4.26696 11.6 4.26198 11.6 4.257C11.6 4.25203 11.6 4.24706 11.6 4.24209C11.6 4.23712 11.6 4.23215 11.6 4.22719C11.6 4.22222 11.6 4.21726 11.6 4.2123C11.6 4.20734 11.6 4.20239 11.6 4.19743C11.6 4.19248 11.6 4.18753 11.6 4.18258C11.6 4.17763 11.6 4.17268 11.6 4.16774C11.6 4.1628 11.6 4.15786 11.6 4.15292C11.6 4.14798 11.6 4.14305 11.6 4.13812C11.6 4.13319 11.6 4.12826 11.6 4.12333C11.6 4.1184 11.6 4.11348 11.6 4.10856C11.6 4.10364 11.6 4.09872 11.6 4.09381C11.6 4.0889 11.6 4.08398 11.6 4.07908C11.6 4.07417 11.6 4.06926 11.6 4.06436C11.6 4.05946 11.6 4.05456 11.6 4.04966C11.6 4.04477 11.6 4.03987 11.6 4.03499C11.6 4.0301 11.6 4.02521 11.6 4.02033C11.6 4.01544 11.6 4.01056 11.6 4.00569C11.6 4.00081 11.6 3.99593 11.6 3.99106C11.6 3.98619 11.6 3.98133 11.6 3.97646C11.6 3.9716 11.6 3.96674 11.6 3.96188C11.6 3.95702 11.6 3.95217 11.6 3.94732C11.6 3.94247 11.6 3.93762 11.6 3.93278C11.6 3.92794 11.6 3.9231 11.6 3.91826C11.6 3.91342 11.6 3.90859 11.6 3.90376C11.6 3.89893 11.6 3.8941 11.6 3.88928C11.6 3.88446 11.6 3.87964 11.6 3.87483C11.6 3.87001 11.6 3.8652 11.6 3.86039C11.6 3.85558 11.6 3.85078 11.6 3.84598C11.6 3.84118 11.6 3.83638 11.6 3.83159C11.6 3.82679 11.6 3.822 11.6 3.81722C11.6 3.81243 11.6 3.80765 11.6 3.80287C11.6 3.7981 11.6 3.79332 11.6 3.78855C11.6 3.78378 11.6 3.77901 11.6 3.77425C11.6 3.76949 11.6 3.76473 11.6 3.75998C11.6 3.75522 11.6 3.75047 11.6 3.74572C11.6 3.74098 11.6 3.73623 11.6 3.7315C11.6 3.72676 11.6 3.72202 11.6 3.71729C11.6 3.71256 11.6 3.70784 11.6 3.70311C11.6 3.69839 11.6 3.69367 11.6 3.68896C11.6 3.68424 11.6 3.67953 11.6 3.67483C11.6 3.67012 11.6 3.66542 11.6 3.66072C11.6 3.65603 11.6 3.65134 11.6 3.64665C11.6 3.64196 11.6 3.63727 11.6 3.63259C11.6 3.62791 11.6 3.62324 11.6 3.61857C11.6 3.6139 11.6 3.60923 11.6 3.60457C11.6 3.5999 11.6 3.59525 11.6 3.59059C11.6 3.58594 11.6 3.58129 11.6 3.57665C11.6 3.572 11.6 3.56736 11.6 3.56273C11.6 3.55809 11.6 3.55346 11.6 3.54883C11.6 3.54421 11.6 3.53958 11.6 3.53497C11.6 3.53035 11.6 3.52574 11.6 3.52113C11.6 3.51652 11.6 3.51192 11.6 3.50732C11.6 3.50272 11.6 3.49813 11.6 3.49354C11.6 3.48895 11.6 3.48437 11.6 3.47979C11.6 3.47521 11.6 3.47063 11.6 3.46606C11.6 3.4615 11.6 3.45693 11.6 3.45237C11.6 3.44781 11.6 3.44326 11.6 3.43871C11.6 3.43416 11.6 3.42961 11.6 3.42507C11.6 3.42053 11.6 3.41599 11.6 3.41146C11.6 3.40693 11.6 3.40241 11.6 3.39789C11.6 3.39337 11.6 3.38885 11.6 3.38434C11.6 3.37983 11.6 3.37533 11.6 3.37083C11.6 3.36633 11.6 3.36184 11.6 3.35735C11.6 3.35286 11.6 3.34837 11.6 3.34389C11.6 3.33942 11.6 3.33494 11.6 3.33047C11.6 3.32601 11.6 3.32154 11.6 3.31708C11.6 3.31263 11.6 3.30817 11.6 3.30373C11.6 3.29928 11.6 3.29484 11.6 3.2904C11.6 3.28597 11.6 3.28154 11.6 3.27711C11.6 3.27268 11.6 3.26826 11.6 3.26385C11.6 3.25944 11.6 3.25503 11.6 3.25062C11.6 3.24622 11.6 3.24182 11.6 3.23743C11.6 3.23304 11.6 3.22865 11.6 3.22427C11.6 3.21989 11.6 3.21551 11.6 3.21114C11.6 3.20677 11.6 3.20241 11.6 3.19805C11.6 3.19369 11.6 3.18934 11.6 3.18499C11.6 3.18064 11.6 3.1763 11.6 3.17197C11.6 3.16763 11.6 3.1633 11.6 3.15898C11.6 3.15465 11.6 3.15034 11.6 3.14602C11.6 3.14171 11.6 3.1374 11.6 3.1331C11.6 3.1288 11.6 3.12451 11.6 3.12022C11.6 3.11593 11.6 3.11165 11.6 3.10737C11.6 3.1031 11.6 3.09882 11.6 3.09456C11.6 3.0903 11.6 3.08604 11.6 3.08178C11.6 3.07753 11.6 3.07329 11.6 3.06905C11.6 3.06481 11.6 3.06057 11.6 3.05634C11.6 3.05212 11.6 3.04789 11.6 3.04368C11.6 3.03946 11.6 3.03525 11.6 3.03105C11.6 3.02685 11.6 3.02265 11.6 3.01846C11.6 3.01427 11.6 3.01008 11.6 3.00591C11.6 3.00173 11.6 2.99756 11.6 2.99339C11.6 2.98923 11.6 2.98507 11.6 2.98092C11.6 2.97676 11.6 2.97262 11.6 2.96848C11.6 2.96434 11.6 2.9602 11.6 2.95608C11.6 2.95195 11.6 2.94783 11.6 2.94372C11.6 2.9396 11.6 2.9355 11.6 2.9314C11.6 2.9273 11.6 2.9232 11.6 2.91912C11.6 2.91503 11.6 2.91095 11.6 2.90688C11.6 2.9028 11.6 2.89873 11.6 2.89467C11.6 2.89061 11.6 2.88656 11.6 2.88251C11.6 2.87847 11.6 2.87443 11.6 2.87039C11.6 2.86636 11.6 2.86233 11.6 2.85831C11.6 2.85429 11.6 2.85028 11.6 2.84628C11.6 2.84227 11.6 2.83827 11.6 2.83428C11.6 2.83029 11.6 2.8263 11.6 2.82232C11.6 2.81834 11.6 2.81437 11.6 2.81041C11.6 2.80645 11.6 2.80249 11.6 2.79854C11.6 2.79459 11.6 2.79064 11.6 2.78671C11.6 2.78277 11.6 2.77884 11.6 2.77492C11.6 2.771 11.6 2.76709 11.6 2.76318C11.6 2.75927 11.6 2.75537 11.6 2.75148C11.6 2.74759 11.6 2.7437 11.6 2.73982C11.6 2.73594 11.6 2.73207 11.6 2.72821C11.6 2.72434 11.6 2.72049 11.6 2.71664C11.6 2.71279 11.6 2.70895 11.6 2.70511C11.6 2.70128 11.6 2.69745 11.6 2.69363C11.6 2.68981 11.6 2.686 11.6 2.6822C11.6 2.67839 11.6 2.6746 11.6 2.67081C11.6 2.66702 11.6 2.66323 11.6 2.65946C11.6 2.65569 11.6 2.65192 11.6 2.64816C11.6 2.6444 11.6 2.64065 11.6 2.6369C11.6 2.63316 11.6 2.62942 11.6 2.6257C11.6 2.62197 11.6 2.61825 11.6 2.61453C11.6 2.61082 11.6 2.60711 11.6 2.60342C11.6 2.59972 11.6 2.59603 11.6 2.59235C11.6 2.58867 11.6 2.58499 11.6 2.58132C11.6 2.57766 11.6 2.574 11.6 2.57035C11.6 2.5667 11.6 2.56306 11.6 2.55942C11.6 2.55579 11.6 2.55216 11.6 2.54854C11.6 2.54492 11.6 2.54131 11.6 2.53771C11.6 2.53411 11.6 2.53051 11.6 2.52693C11.6 2.52334 11.6 2.51976 11.6 2.51619C11.6 2.51262 11.6 2.50906 11.6 2.5055C11.6 2.50195 11.6 2.4984 11.6 2.49487C11.6 2.49133 11.6 2.4878 11.6 2.48428C11.6 2.48076 11.6 2.47724 11.6 2.47374C11.6 2.47023 11.6 2.46674 11.6 2.46325C11.6 2.45976 11.6 2.45628 11.6 2.45281C11.6 2.44934 11.6 2.44588 11.6 2.44242C11.6 2.43897 11.6 2.43552 11.6 2.43208C11.6 2.42865 11.6 2.42522 11.6 2.4218C11.6 2.41838 11.6 2.41496 11.6 2.41156C11.6 2.40816 11.6 2.40476 11.6 2.40137C11.6 2.39799 11.6 2.39461 11.6 2.39124C11.6 2.38787 11.6 2.38451 11.6 2.38116C11.6 2.37781 11.6 2.37446 11.6 2.37113C11.6 2.3678 11.6 2.36447 11.6 2.36115C11.6 2.35784 11.6 2.35453 11.6 2.35123C11.6 2.34793 11.6 2.34464 11.6 2.34136C11.6 2.33807 11.6 2.3348 11.6 2.33154C11.6 2.32827 11.6 2.32502 11.6 2.32177C11.6 2.31853 11.6 2.31529 11.6 2.31206C11.6 2.30883 11.6 2.30561 11.6 2.3024C11.6 2.29919 11.6 2.29599 11.6 2.2928C11.6 2.28961 11.6 2.28642 11.6 2.28325C11.6 2.28008 11.6 2.27691 11.6 2.27375C11.6 2.2706 11.6 2.26745 11.6 2.26431C11.6 2.26118 11.6 2.25805 11.6 2.25493C11.6 2.25181 11.6 2.2487 11.6 2.2456C11.6 2.2425 11.6 2.23941 11.6 2.23633C11.6 2.23324 11.6 2.23017 11.6 2.22711C11.6 2.22405 11.6 2.22099 11.6 2.21795C11.6 2.2149 11.6 2.21187 11.6 2.20884C11.6 2.20582 11.6 2.2028 11.6 2.19979C11.6 2.19679 11.6 2.19379 11.6 2.1908C11.6 2.18781 11.6 2.18484 11.6 2.18187C11.6 2.1789 11.6 2.17594 11.6 2.17299C11.6 2.17004 11.6 2.1671 11.6 2.16417C11.6 2.16124 11.6 2.15832 11.6 2.15541C11.6 2.1525 11.6 2.1496 11.6 2.14671C11.6 2.14382 11.6 2.14093 11.6 2.13806C11.6 2.13519 11.6 2.13233 11.6 2.12948C11.6 2.12662 11.6 2.12378 11.6 2.12095C11.6 2.11812 11.6 2.11529 11.6 2.11248C11.6 2.10967 11.6 2.10686 11.6 2.10407C11.6 2.10128 11.6 2.0985 11.6 2.09572C11.6 2.09295 11.6 2.09019 11.6 2.08743C11.6 2.08468 11.6 2.08194 11.6 2.07921C11.6 2.07647 11.6 2.07375 11.6 2.07104C11.6 2.06833 11.6 2.06562 11.6 2.06293C11.6 2.06024 11.6 2.05756 11.6 2.05488C11.6 2.05221 11.6 2.04955 11.6 2.0469C11.6 2.04425 11.6 2.04161 11.6 2.03898C11.6 2.03635 11.6 2.03373 11.6 2.03111C11.6 2.0285 11.6 2.0259 11.6 2.02332C11.6 2.02073 11.6 2.01815 11.6 2.01558C11.6 2.01301 11.6 2.01045 11.6 2.0079C11.6 2.00536 11.6 2.00282 11.6 2.00029C11.6 1.99776 11.6 1.99525 11.6 1.99274C11.6 1.99024 11.6 1.98774 11.6 1.98526C11.6 1.98277 11.6 1.9803 11.6 1.97783C11.6 1.97537 11.6 1.97292 11.6 1.97048C11.6 1.96803 11.6 1.9656 11.6 1.96318C11.6 1.96076 11.6 1.95835 11.6 1.95595C11.6 1.95355 11.6 1.95116 11.6 1.94879C11.6 1.94641 11.6 1.94404 11.6 1.94169C11.6 1.93933 11.6 1.93698 11.6 1.93465C11.6 1.93232 11.6 1.92999 11.6 1.92768C11.6 1.92537 11.6 1.92307 11.6 1.92078C11.6 1.91849 11.6 1.91621 11.6 1.91394C11.6 1.91167 11.6 1.90941 11.6 1.90717C11.6 1.90492 11.6 1.90268 11.6 1.90046C11.6 1.89823 11.6 1.89602 11.6 1.89382C11.6 1.89162 11.6 1.88943 11.6 1.88725C11.6 1.88507 11.6 1.8829 11.6 1.88074C11.6 1.87858 11.6 1.87644 11.6 1.8743C11.6 1.87217 11.6 1.87004 11.6 1.86793C11.6 1.86582 11.6 1.86372 11.6 1.86163C11.6 1.85954 11.6 1.85746 11.6 1.8554C11.6 1.85333 11.6 1.85127 11.6 1.84923C11.6 1.84719 11.6 1.84515 11.6 1.84313C11.6 1.84111 11.6 1.8391 11.6 1.8371C11.6 1.83511 11.6 1.83312 11.6 1.83114C11.6 1.82917 11.6 1.82721 11.6 1.82525C11.6 1.8233 11.6 1.82136 11.6 1.81943C11.6 1.81751 11.6 1.81559 11.6 1.81368C11.6 1.81178 11.6 1.80989 11.6 1.808C11.6 1.80612 11.6 1.80425 11.6 1.80239C11.6 1.80054 11.6 1.79869 11.6 1.79686C11.6 1.79502 11.6 1.7932 11.6 1.79139C11.6 1.78958 11.6 1.78778 11.6 1.78599C11.6 1.7842 11.6 1.78243 11.6 1.78067C11.6 1.7789 11.6 1.77715 11.6 1.77541C11.6 1.77367 11.6 1.77195 11.6 1.77023C11.6 1.76852 11.6 1.76681 11.6 1.76512C11.6 1.76343 11.6 1.76175 11.6 1.76008C11.6 1.75842 11.6 1.75676 11.6 1.75512C11.6 1.75348 11.6 1.75185 11.6 1.75023C11.6 1.74861 11.6 1.747 11.6 1.74541C11.6 1.74382 11.6 1.74224 11.6 1.74067C11.6 1.7391 11.6 1.73754 11.6 1.736C11.6 1.73445 11.6 1.73292 11.6 1.7314C11.6 1.72988 11.6 1.72837 11.6 1.72688C11.6 1.72538 11.6 1.7239 11.6 1.72243C11.6 1.72096 11.6 1.7195 11.6 1.71806C11.6 1.71661 11.6 1.71518 11.6 1.71376C11.6 1.71234 11.6 1.71093 11.6 1.70954C11.6 1.70814 11.6 1.70676 11.6 1.70539C11.6 1.70402 11.6 1.70266 11.6 1.70132C11.6 1.69997 11.6 1.69864 11.6 1.69732C11.6 1.696 11.6 1.6947 11.6 1.6934C11.6 1.69211 11.6 1.69083 11.6 1.68956C11.6 1.68829 11.6 1.68704 11.6 1.6858C11.6 1.68455 11.6 1.68332 11.6 1.68211C11.6 1.68089 11.6 1.67969 11.6 1.6785C11.6 1.67731 11.6 1.67613 11.6 1.67496C11.6 1.6738 11.6 1.67265 11.6 1.67151C11.6 1.67037 11.6 1.66924 11.6 1.66813C11.6 1.66702 11.6 1.66592 11.6 1.66483C11.6 1.66374 11.6 1.66267 11.6 1.66161C11.6 1.66055 11.6 1.6595 11.6 1.65847C11.6 1.65743 11.6 1.65641 11.6 1.65541C11.6 1.6544 11.6 1.6534 11.6 1.65242C11.6 1.65144 11.6 1.65047 11.6 1.64952C11.6 1.64856 11.6 1.64762 11.6 1.64669C11.6 1.64577 11.6 1.64485 11.6 1.64395C11.6 1.64305 11.6 1.64216 11.6 1.64129C11.6 1.64041 11.6 1.63955 11.6 1.63871C11.6 1.63786 11.6 1.63702 11.6 1.6362C11.6 1.63538 11.6 1.63458 11.6 1.63378C11.6 1.63299 11.6 1.63221 11.6 1.63144C11.6 1.63068 11.6 1.62993 11.6 1.62919C11.6 1.62845 11.6 1.62772 11.6 1.62701C11.6 1.6263 11.6 1.6256 11.6 1.62492C11.6 1.62423 11.6 1.62356 11.6 1.62291C11.6 1.62225 11.6 1.62161 11.6 1.62098C11.6 1.62035 11.6 1.61974 11.6 1.61913C11.6 1.61853 11.6 1.61795 11.6 1.61737C11.6 1.6168 11.6 1.61624 11.6 1.61569C11.6 1.61515 11.6 1.61462 11.6 1.6141C11.6 1.61358 11.6 1.61308 11.6 1.61259C11.6 1.6121 11.6 1.61162 11.6 1.61116C11.6 1.6107 11.6 1.61025 11.6 1.60982C11.6 1.60939 11.6 1.60897 11.6 1.60856C11.6 1.60816 11.6 1.60777 11.6 1.60739C11.6 1.60701 11.6 1.60665 11.6 1.6063C11.6 1.60595 11.6 1.60562 11.6 1.6053C11.6 1.60498 11.6 1.60468 11.6 1.60439C11.6 1.60409 11.6 1.60382 11.6 1.60356C11.6 1.60329 11.6 1.60305 11.6 1.60281C11.6 1.60258 11.6 1.60236 11.6 1.60216C11.6 1.60195 11.6 1.60176 11.6 1.60158C11.6 1.60141 11.6 1.60125 11.6 1.6011C11.6 1.60096 11.6 1.60082 11.6 1.60071C11.6 1.60059 11.6 1.60049 11.6 1.6004C11.6 1.60031 11.6 1.60024 11.6 1.60018C11.6 1.60012 11.6 1.60007 11.6 1.60004C11.6 1.60001 11.6 1.6 11.1 1.6C10.6 1.6 10.6 1.60001 10.6 1.60004C10.6 1.60007 10.6 1.60012 10.6 1.60018C10.6 1.60024 10.6 1.60031 10.6 1.6004C10.6 1.60049 10.6 1.60059 10.6 1.60071C10.6 1.60082 10.6 1.60096 10.6 1.6011C10.6 1.60125 10.6 1.60141 10.6 1.60158C10.6 1.60176 10.6 1.60195 10.6 1.60216C10.6 1.60236 10.6 1.60258 10.6 1.60281C10.6 1.60305 10.6 1.60329 10.6 1.60356C10.6 1.60382 10.6 1.60409 10.6 1.60439C10.6 1.60468 10.6 1.60498 10.6 1.6053C10.6 1.60562 10.6 1.60595 10.6 1.6063C10.6 1.60665 10.6 1.60701 10.6 1.60739C10.6 1.60777 10.6 1.60816 10.6 1.60856C10.6 1.60897 10.6 1.60939 10.6 1.60982C10.6 1.61025 10.6 1.6107 10.6 1.61116C10.6 1.61162 10.6 1.6121 10.6 1.61259C10.6 1.61308 10.6 1.61358 10.6 1.6141C10.6 1.61462 10.6 1.61515 10.6 1.61569C10.6 1.61624 10.6 1.6168 10.6 1.61737C10.6 1.61795 10.6 1.61853 10.6 1.61913C10.6 1.61974 10.6 1.62035 10.6 1.62098C10.6 1.62161 10.6 1.62225 10.6 1.62291C10.6 1.62356 10.6 1.62423 10.6 1.62492C10.6 1.6256 10.6 1.6263 10.6 1.62701C10.6 1.62772 10.6 1.62845 10.6 1.62919C10.6 1.62993 10.6 1.63068 10.6 1.63144C10.6 1.63221 10.6 1.63299 10.6 1.63378C10.6 1.63458 10.6 1.63538 10.6 1.6362C10.6 1.63702 10.6 1.63786 10.6 1.63871C10.6 1.63955 10.6 1.64041 10.6 1.64129C10.6 1.64216 10.6 1.64305 10.6 1.64395C10.6 1.64485 10.6 1.64577 10.6 1.64669C10.6 1.64762 10.6 1.64856 10.6 1.64952C10.6 1.65047 10.6 1.65144 10.6 1.65242C10.6 1.6534 10.6 1.6544 10.6 1.65541C10.6 1.65641 10.6 1.65743 10.6 1.65847C10.6 1.6595 10.6 1.66055 10.6 1.66161C10.6 1.66267 10.6 1.66374 10.6 1.66483C10.6 1.66592 10.6 1.66702 10.6 1.66813C10.6 1.66924 10.6 1.67037 10.6 1.67151C10.6 1.67265 10.6 1.6738 10.6 1.67496C10.6 1.67613 10.6 1.67731 10.6 1.6785C10.6 1.67969 10.6 1.68089 10.6 1.68211C10.6 1.68332 10.6 1.68455 10.6 1.6858C10.6 1.68704 10.6 1.68829 10.6 1.68956C10.6 1.69083 10.6 1.69211 10.6 1.6934C10.6 1.6947 10.6 1.696 10.6 1.69732C10.6 1.69864 10.6 1.69997 10.6 1.70132C10.6 1.70266 10.6 1.70402 10.6 1.70539C10.6 1.70676 10.6 1.70814 10.6 1.70954C10.6 1.71093 10.6 1.71234 10.6 1.71376C10.6 1.71518 10.6 1.71661 10.6 1.71806C10.6 1.7195 10.6 1.72096 10.6 1.72243C10.6 1.7239 10.6 1.72538 10.6 1.72688C10.6 1.72837 10.6 1.72988 10.6 1.7314C10.6 1.73292 10.6 1.73445 10.6 1.736C10.6 1.73754 10.6 1.7391 10.6 1.74067C10.6 1.74224 10.6 1.74382 10.6 1.74541C10.6 1.747 10.6 1.74861 10.6 1.75023C10.6 1.75185 10.6 1.75348 10.6 1.75512C10.6 1.75676 10.6 1.75842 10.6 1.76008C10.6 1.76175 10.6 1.76343 10.6 1.76512C10.6 1.76681 10.6 1.76852 10.6 1.77023C10.6 1.77195 10.6 1.77367 10.6 1.77541C10.6 1.77715 10.6 1.7789 10.6 1.78067C10.6 1.78243 10.6 1.7842 10.6 1.78599C10.6 1.78778 10.6 1.78958 10.6 1.79139C10.6 1.7932 10.6 1.79502 10.6 1.79686C10.6 1.79869 10.6 1.80054 10.6 1.80239C10.6 1.80425 10.6 1.80612 10.6 1.808C10.6 1.80989 10.6 1.81178 10.6 1.81368C10.6 1.81559 10.6 1.81751 10.6 1.81943C10.6 1.82136 10.6 1.8233 10.6 1.82525C10.6 1.82721 10.6 1.82917 10.6 1.83114C10.6 1.83312 10.6 1.83511 10.6 1.8371C10.6 1.8391 10.6 1.84111 10.6 1.84313C10.6 1.84515 10.6 1.84719 10.6 1.84923C10.6 1.85127 10.6 1.85333 10.6 1.8554C10.6 1.85746 10.6 1.85954 10.6 1.86163C10.6 1.86372 10.6 1.86582 10.6 1.86793C10.6 1.87004 10.6 1.87217 10.6 1.8743C10.6 1.87644 10.6 1.87858 10.6 1.88074C10.6 1.8829 10.6 1.88507 10.6 1.88725C10.6 1.88943 10.6 1.89162 10.6 1.89382C10.6 1.89602 10.6 1.89823 10.6 1.90046C10.6 1.90268 10.6 1.90492 10.6 1.90717C10.6 1.90941 10.6 1.91167 10.6 1.91394C10.6 1.91621 10.6 1.91849 10.6 1.92078C10.6 1.92307 10.6 1.92537 10.6 1.92768C10.6 1.92999 10.6 1.93232 10.6 1.93465C10.6 1.93698 10.6 1.93933 10.6 1.94169C10.6 1.94404 10.6 1.94641 10.6 1.94879C10.6 1.95116 10.6 1.95355 10.6 1.95595C10.6 1.95835 10.6 1.96076 10.6 1.96318C10.6 1.9656 10.6 1.96803 10.6 1.97048C10.6 1.97292 10.6 1.97537 10.6 1.97783C10.6 1.9803 10.6 1.98277 10.6 1.98526C10.6 1.98774 10.6 1.99024 10.6 1.99274C10.6 1.99525 10.6 1.99776 10.6 2.00029C10.6 2.00282 10.6 2.00536 10.6 2.0079C10.6 2.01045 10.6 2.01301 10.6 2.01558C10.6 2.01815 10.6 2.02073 10.6 2.02332C10.6 2.0259 10.6 2.0285 10.6 2.03111C10.6 2.03373 10.6 2.03635 10.6 2.03898C10.6 2.04161 10.6 2.04425 10.6 2.0469C10.6 2.04955 10.6 2.05221 10.6 2.05488C10.6 2.05756 10.6 2.06024 10.6 2.06293C10.6 2.06562 10.6 2.06833 10.6 2.07104C10.6 2.07375 10.6 2.07647 10.6 2.07921C10.6 2.08194 10.6 2.08468 10.6 2.08743C10.6 2.09019 10.6 2.09295 10.6 2.09572C10.6 2.0985 10.6 2.10128 10.6 2.10407C10.6 2.10686 10.6 2.10967 10.6 2.11248C10.6 2.11529 10.6 2.11812 10.6 2.12095C10.6 2.12378 10.6 2.12662 10.6 2.12948C10.6 2.13233 10.6 2.13519 10.6 2.13806C10.6 2.14093 10.6 2.14382 10.6 2.14671C10.6 2.1496 10.6 2.1525 10.6 2.15541C10.6 2.15832 10.6 2.16124 10.6 2.16417C10.6 2.1671 10.6 2.17004 10.6 2.17299C10.6 2.17594 10.6 2.1789 10.6 2.18187C10.6 2.18484 10.6 2.18781 10.6 2.1908C10.6 2.19379 10.6 2.19679 10.6 2.19979C10.6 2.2028 10.6 2.20582 10.6 2.20884C10.6 2.21187 10.6 2.2149 10.6 2.21795C10.6 2.22099 10.6 2.22405 10.6 2.22711C10.6 2.23017 10.6 2.23324 10.6 2.23633C10.6 2.23941 10.6 2.2425 10.6 2.2456C10.6 2.2487 10.6 2.25181 10.6 2.25493C10.6 2.25805 10.6 2.26118 10.6 2.26431C10.6 2.26745 10.6 2.2706 10.6 2.27375C10.6 2.27691 10.6 2.28008 10.6 2.28325C10.6 2.28642 10.6 2.28961 10.6 2.2928C10.6 2.29599 10.6 2.29919 10.6 2.3024C10.6 2.30561 10.6 2.30883 10.6 2.31206C10.6 2.31529 10.6 2.31853 10.6 2.32177C10.6 2.32502 10.6 2.32827 10.6 2.33154C10.6 2.3348 10.6 2.33807 10.6 2.34136C10.6 2.34464 10.6 2.34793 10.6 2.35123C10.6 2.35453 10.6 2.35784 10.6 2.36115C10.6 2.36447 10.6 2.3678 10.6 2.37113C10.6 2.37446 10.6 2.37781 10.6 2.38116C10.6 2.38451 10.6 2.38787 10.6 2.39124C10.6 2.39461 10.6 2.39799 10.6 2.40137C10.6 2.40476 10.6 2.40816 10.6 2.41156C10.6 2.41496 10.6 2.41838 10.6 2.4218C10.6 2.42522 10.6 2.42865 10.6 2.43208C10.6 2.43552 10.6 2.43897 10.6 2.44242C10.6 2.44588 10.6 2.44934 10.6 2.45281C10.6 2.45628 10.6 2.45976 10.6 2.46325C10.6 2.46674 10.6 2.47023 10.6 2.47374C10.6 2.47724 10.6 2.48076 10.6 2.48428C10.6 2.4878 10.6 2.49133 10.6 2.49487C10.6 2.4984 10.6 2.50195 10.6 2.5055C10.6 2.50906 10.6 2.51262 10.6 2.51619C10.6 2.51976 10.6 2.52334 10.6 2.52693C10.6 2.53051 10.6 2.53411 10.6 2.53771C10.6 2.54131 10.6 2.54492 10.6 2.54854C10.6 2.55216 10.6 2.55579 10.6 2.55942C10.6 2.56306 10.6 2.5667 10.6 2.57035C10.6 2.574 10.6 2.57766 10.6 2.58132C10.6 2.58499 10.6 2.58867 10.6 2.59235C10.6 2.59603 10.6 2.59972 10.6 2.60342C10.6 2.60711 10.6 2.61082 10.6 2.61453C10.6 2.61825 10.6 2.62197 10.6 2.6257C10.6 2.62942 10.6 2.63316 10.6 2.6369C10.6 2.64065 10.6 2.6444 10.6 2.64816C10.6 2.65192 10.6 2.65569 10.6 2.65946C10.6 2.66323 10.6 2.66702 10.6 2.67081C10.6 2.6746 10.6 2.67839 10.6 2.6822C10.6 2.686 10.6 2.68981 10.6 2.69363C10.6 2.69745 10.6 2.70128 10.6 2.70511C10.6 2.70895 10.6 2.71279 10.6 2.71664C10.6 2.72049 10.6 2.72434 10.6 2.72821C10.6 2.73207 10.6 2.73594 10.6 2.73982C10.6 2.7437 10.6 2.74759 10.6 2.75148C10.6 2.75537 10.6 2.75927 10.6 2.76318C10.6 2.76709 10.6 2.771 10.6 2.77492C10.6 2.77884 10.6 2.78277 10.6 2.78671C10.6 2.79064 10.6 2.79459 10.6 2.79854C10.6 2.80249 10.6 2.80645 10.6 2.81041C10.6 2.81437 10.6 2.81834 10.6 2.82232C10.6 2.8263 10.6 2.83029 10.6 2.83428C10.6 2.83827 10.6 2.84227 10.6 2.84628C10.6 2.85028 10.6 2.85429 10.6 2.85831C10.6 2.86233 10.6 2.86636 10.6 2.87039C10.6 2.87443 10.6 2.87847 10.6 2.88251C10.6 2.88656 10.6 2.89061 10.6 2.89467C10.6 2.89873 10.6 2.9028 10.6 2.90688C10.6 2.91095 10.6 2.91503 10.6 2.91912C10.6 2.9232 10.6 2.9273 10.6 2.9314C10.6 2.9355 10.6 2.9396 10.6 2.94372C10.6 2.94783 10.6 2.95195 10.6 2.95608C10.6 2.9602 10.6 2.96434 10.6 2.96848C10.6 2.97262 10.6 2.97676 10.6 2.98092C10.6 2.98507 10.6 2.98923 10.6 2.99339C10.6 2.99756 10.6 3.00173 10.6 3.00591C10.6 3.01008 10.6 3.01427 10.6 3.01846C10.6 3.02265 10.6 3.02685 10.6 3.03105C10.6 3.03525 10.6 3.03946 10.6 3.04368C10.6 3.04789 10.6 3.05212 10.6 3.05634C10.6 3.06057 10.6 3.06481 10.6 3.06905C10.6 3.07329 10.6 3.07753 10.6 3.08178C10.6 3.08604 10.6 3.0903 10.6 3.09456C10.6 3.09882 10.6 3.1031 10.6 3.10737C10.6 3.11165 10.6 3.11593 10.6 3.12022C10.6 3.12451 10.6 3.1288 10.6 3.1331C10.6 3.1374 10.6 3.14171 10.6 3.14602C10.6 3.15034 10.6 3.15465 10.6 3.15898C10.6 3.1633 10.6 3.16763 10.6 3.17197C10.6 3.1763 10.6 3.18064 10.6 3.18499C10.6 3.18934 10.6 3.19369 10.6 3.19805C10.6 3.20241 10.6 3.20677 10.6 3.21114C10.6 3.21551 10.6 3.21989 10.6 3.22427C10.6 3.22865 10.6 3.23304 10.6 3.23743C10.6 3.24182 10.6 3.24622 10.6 3.25062C10.6 3.25503 10.6 3.25944 10.6 3.26385C10.6 3.26826 10.6 3.27268 10.6 3.27711C10.6 3.28154 10.6 3.28597 10.6 3.2904C10.6 3.29484 10.6 3.29928 10.6 3.30373C10.6 3.30817 10.6 3.31263 10.6 3.31708C10.6 3.32154 10.6 3.32601 10.6 3.33047C10.6 3.33494 10.6 3.33942 10.6 3.34389C10.6 3.34837 10.6 3.35286 10.6 3.35735C10.6 3.36184 10.6 3.36633 10.6 3.37083C10.6 3.37533 10.6 3.37983 10.6 3.38434C10.6 3.38885 10.6 3.39337 10.6 3.39789C10.6 3.40241 10.6 3.40693 10.6 3.41146C10.6 3.41599 10.6 3.42053 10.6 3.42507C10.6 3.42961 10.6 3.43416 10.6 3.43871C10.6 3.44326 10.6 3.44781 10.6 3.45237C10.6 3.45693 10.6 3.4615 10.6 3.46606C10.6 3.47063 10.6 3.47521 10.6 3.47979C10.6 3.48437 10.6 3.48895 10.6 3.49354C10.6 3.49813 10.6 3.50272 10.6 3.50732C10.6 3.51192 10.6 3.51652 10.6 3.52113C10.6 3.52574 10.6 3.53035 10.6 3.53497C10.6 3.53958 10.6 3.54421 10.6 3.54883C10.6 3.55346 10.6 3.55809 10.6 3.56273C10.6 3.56736 10.6 3.572 10.6 3.57665C10.6 3.58129 10.6 3.58594 10.6 3.59059C10.6 3.59525 10.6 3.5999 10.6 3.60457C10.6 3.60923 10.6 3.6139 10.6 3.61857C10.6 3.62324 10.6 3.62791 10.6 3.63259C10.6 3.63727 10.6 3.64196 10.6 3.64665C10.6 3.65134 10.6 3.65603 10.6 3.66072C10.6 3.66542 10.6 3.67012 10.6 3.67483C10.6 3.67953 10.6 3.68424 10.6 3.68896C10.6 3.69367 10.6 3.69839 10.6 3.70311C10.6 3.70784 10.6 3.71256 10.6 3.71729C10.6 3.72202 10.6 3.72676 10.6 3.7315C10.6 3.73623 10.6 3.74098 10.6 3.74572C10.6 3.75047 10.6 3.75522 10.6 3.75998C10.6 3.76473 10.6 3.76949 10.6 3.77425C10.6 3.77901 10.6 3.78378 10.6 3.78855C10.6 3.79332 10.6 3.7981 10.6 3.80287C10.6 3.80765 10.6 3.81243 10.6 3.81722C10.6 3.822 10.6 3.82679 10.6 3.83159C10.6 3.83638 10.6 3.84118 10.6 3.84598C10.6 3.85078 10.6 3.85558 10.6 3.86039C10.6 3.8652 10.6 3.87001 10.6 3.87483C10.6 3.87964 10.6 3.88446 10.6 3.88928C10.6 3.8941 10.6 3.89893 10.6 3.90376C10.6 3.90859 10.6 3.91342 10.6 3.91826C10.6 3.9231 10.6 3.92794 10.6 3.93278C10.6 3.93762 10.6 3.94247 10.6 3.94732C10.6 3.95217 10.6 3.95702 10.6 3.96188C10.6 3.96674 10.6 3.9716 10.6 3.97646C10.6 3.98133 10.6 3.98619 10.6 3.99106C10.6 3.99593 10.6 4.00081 10.6 4.00569C10.6 4.01056 10.6 4.01544 10.6 4.02033C10.6 4.02521 10.6 4.0301 10.6 4.03499C10.6 4.03987 10.6 4.04477 10.6 4.04966C10.6 4.05456 10.6 4.05946 10.6 4.06436C10.6 4.06926 10.6 4.07417 10.6 4.07908C10.6 4.08398 10.6 4.0889 10.6 4.09381C10.6 4.09872 10.6 4.10364 10.6 4.10856C10.6 4.11348 10.6 4.1184 10.6 4.12333C10.6 4.12826 10.6 4.13319 10.6 4.13812C10.6 4.14305 10.6 4.14798 10.6 4.15292C10.6 4.15786 10.6 4.1628 10.6 4.16774C10.6 4.17268 10.6 4.17763 10.6 4.18258C10.6 4.18753 10.6 4.19248 10.6 4.19743C10.6 4.20239 10.6 4.20734 10.6 4.2123C10.6 4.21726 10.6 4.22222 10.6 4.22719C10.6 4.23215 10.6 4.23712 10.6 4.24209C10.6 4.24706 10.6 4.25203 10.6 4.257C10.6 4.26198 10.6 4.26696 10.6 4.27194C10.6 4.27692 10.6 4.2819 10.6 4.28688C10.6 4.29187 10.6 4.29685 10.6 4.30184C10.6 4.30683 10.6 4.31182 10.6 4.31682C10.6 4.32181 10.6 4.32681 10.6 4.33181C10.6 4.33681 10.6 4.34181 10.6 4.34681C10.6 4.35181 10.6 4.35682 10.6 4.36183C10.6 4.36683 10.6 4.37184 10.6 4.37686C10.6 4.38187 10.6 4.38688 10.6 4.3919C10.6 4.39692 10.6 4.40193 10.6 4.40695C10.6 4.41198 10.6 4.417 10.6 4.42202C10.6 4.42705 10.6 4.43207 10.6 4.4371C10.6 4.44213 10.6 4.44716 10.6 4.4522C10.6 4.45723 10.6 4.46226 10.6 4.4673C10.6 4.47234 10.6 4.47738 10.6 4.48242C10.6 4.48746 10.6 4.4925 10.6 4.49754C10.6 4.50259 10.6 4.50763 10.6 4.51268C10.6 4.51773 10.6 4.52278 10.6 4.52783C10.6 4.53288 10.6 4.53793 10.6 4.54299C10.6 4.54804 10.6 4.5531 10.6 4.55816C10.6 4.56322 10.6 4.56828 10.6 4.57334C10.6 4.5784 10.6 4.58346 10.6 4.58853C10.6 4.59359 10.6 4.59866 10.6 4.60372C10.6 4.60879 10.6 4.61386 10.6 4.61893C10.6 4.624 10.6 4.62907 10.6 4.63415C10.6 4.63922 10.6 4.6443 10.6 4.64937C10.6 4.65445 10.6 4.65953 10.6 4.66461C10.6 4.66969 10.6 4.67477 10.6 4.67985C10.6 4.68493 10.6 4.69001 10.6 4.6951C10.6 4.70018 10.6 4.70527 10.6 4.71036C10.6 4.71544 10.6 4.72053 10.6 4.72562C10.6 4.73071 10.6 4.7358 10.6 4.74089C10.6 4.74599 10.6 4.75108 10.6 4.75617C10.6 4.76127 10.6 4.76636 10.6 4.77146C10.6 4.77656 10.6 4.78165 10.6 4.78675C10.6 4.79185 10.6 4.79695 10.6 4.80205C10.6 4.80715 10.6 4.81225 10.6 4.81735C10.6 4.82246 10.6 4.82756 10.6 4.83266C10.6 4.83777 10.6 4.84287 10.6 4.84798C10.6 4.85308 10.6 4.85819 10.6 4.8633C10.6 4.86841 10.6 4.87351 10.6 4.87862C10.6 4.88373 10.6 4.88884 10.6 4.89395C10.6 4.89906 10.6 4.90418 10.6 4.90929C10.6 4.9144 10.6 4.91951 10.6 4.92463C10.6 4.92974 10.6 4.93485 10.6 4.93997C10.6 4.94508 10.6 4.9502 10.6 4.95531C10.6 4.96043 10.6 4.96555 10.6 4.97066C10.6 4.97578 10.6 4.9809 10.6 4.98601C10.6 4.99113 10.6 4.99625 10.6 5.00137C10.6 5.00649 10.6 5.01161 10.6 5.01673C10.6 5.02185 10.6 5.02697 10.6 5.03209C10.6 5.03721 10.6 5.04233 10.6 5.04745C10.6 5.05257 10.6 5.05769 10.6 5.06281C10.6 5.06793 10.6 5.07306 10.6 5.07818C10.6 5.0833 10.6 5.08842 10.6 5.09354C10.6 5.09867 10.6 5.10379 10.6 5.10891C10.6 5.11403 10.6 5.11916 10.6 5.12428C10.6 5.1294 10.6 5.13453 10.6 5.13965C10.6 5.14477 10.6 5.14989 10.6 5.15502C10.6 5.16014 10.6 5.16526 10.6 5.17039C10.6 5.17551 10.6 5.18063 10.6 5.18576C10.6 5.19088 10.6 5.196 10.6 5.20112C10.6 5.20625 10.6 5.21137 10.6 5.21649C10.6 5.22161 10.6 5.22674 10.6 5.23186C10.6 5.23698 10.6 5.2421 10.6 5.24722C10.6 5.25235 10.6 5.25747 10.6 5.26259C10.6 5.26771 10.6 5.27283 10.6 5.27795C10.6 5.28307 10.6 5.28819 10.6 5.29331C10.6 5.29843 10.6 5.30355 10.6 5.30867C10.6 5.31379 10.6 5.3189 10.6 5.32402C10.6 5.32914 10.6 5.33426 10.6 5.33938C10.6 5.34449 10.6 5.34961 10.6 5.35472C10.6 5.35984 10.6 5.36496 10.6 5.37007C10.6 5.37519 10.6 5.3803 10.6 5.38541C10.6 5.39053 10.6 5.39564 10.6 5.40075C10.6 5.40586 10.6 5.41098 10.6 5.41609C10.6 5.4212 10.6 5.42631 10.6 5.43142C10.6 5.43653 10.6 5.44164 10.6 5.44674C10.6 5.45185 10.6 5.45696 10.6 5.46206C10.6 5.46717 10.6 5.47228 10.6 5.47738C10.6 5.48248 10.6 5.48759 10.6 5.49269C10.6 5.49779 10.6 5.5029 10.6 5.508C10.6 5.5131 10.6 5.5182 10.6 5.5233C10.6 5.52839 10.6 5.53349 10.6 5.53859C10.6 5.54368 10.6 5.54878 10.6 5.55387C10.6 5.55897 10.6 5.56406 10.6 5.56916C10.6 5.57425 10.6 5.57934 10.6 5.58443C10.6 5.58952 10.6 5.59461 10.6 5.59969C10.6 5.60478 10.6 5.60987 10.6 5.61495C10.6 5.62004 10.6 5.62512 10.6 5.6302C10.6 5.63529 10.6 5.64037 10.6 5.64545C10.6 5.65053 10.6 5.65561 10.6 5.66068C10.6 5.66576 10.6 5.67084 10.6 5.67591C10.6 5.68098 10.6 5.68606 10.6 5.69113C10.6 5.6962 10.6 5.70127 10.6 5.70634C10.6 5.7114 10.6 5.71647 10.6 5.72154C10.6 5.7266 10.6 5.73166 10.6 5.73673C10.6 5.74179 10.6 5.74685 10.6 5.75191C10.6 5.75697 10.6 5.76202 10.6 5.76708C10.6 5.77213 10.6 5.77719 10.6 5.78224C10.6 5.78729 10.6 5.79234 10.6 5.79739C10.6 5.80244 10.6 5.80748 10.6 5.81253C10.6 5.81757 10.6 5.82262 10.6 5.82766C10.6 5.8327 10.6 5.83774 10.6 5.84277C10.6 5.84781 10.6 5.85285 10.6 5.85788C10.6 5.86291 10.6 5.86794 10.6 5.87297C10.6 5.878 10.6 5.88303 10.6 5.88806C10.6 5.89308 10.6 5.89811 10.6 5.90313C10.6 5.90815 10.6 5.91317 10.6 5.91818C10.6 5.9232 10.6 5.92822 10.6 5.93323C10.6 5.93824 10.6 5.94325 10.6 5.94826C10.6 5.95327 10.6 5.95827 10.6 5.96328C10.6 5.96828 10.6 5.97328 10.6 5.97828C10.6 5.98328 10.6 5.98828 10.6 5.99328C10.6 5.99827 10.6 6.00326 10.6 6.00825C10.6 6.01324 10.6 6.01823 10.6 6.02322C10.6 6.0282 10.6 6.03318 10.6 6.03816C10.6 6.04314 10.6 6.04812 10.6 6.0531C10.6 6.05807 10.6 6.06305 10.6 6.06802C10.6 6.07299 10.6 6.07795 10.6 6.08292C10.6 6.08788 10.6 6.09285 10.6 6.09781C10.6 6.10277 10.6 6.10772 10.6 6.11268C10.6 6.11763 10.6 6.12259 10.6 6.12753C10.6 6.13248 10.6 6.13743 10.6 6.14237C10.6 6.14732 10.6 6.15226 10.6 6.1572C10.6 6.16214 10.6 6.16707 10.6 6.172C10.6 6.17694 10.6 6.18187 10.6 6.18679C10.6 6.19172 10.6 6.19664 10.6 6.20156C10.6 6.20649 10.6 6.2114 10.6 6.21632C10.6 6.22123 10.6 6.22615 10.6 6.23106C10.6 6.23596 10.6 6.24087 10.6 6.24577C10.6 6.25068 10.6 6.25558 10.6 6.26047C10.6 6.26537 10.6 6.27026 10.6 6.27516C10.6 6.28005 10.6 6.28493 10.6 6.28982C10.6 6.2947 10.6 6.29958 10.6 6.30446C10.6 6.30934 10.6 6.31421 10.6 6.31908C10.6 6.32396 10.6 6.32882 10.6 6.33369C10.6 6.33855 10.6 6.34342 10.6 6.34827C10.6 6.35313 10.6 6.35799 10.6 6.36284C10.6 6.36769 10.6 6.37254 10.6 6.37738C10.6 6.38223 10.6 6.38707 10.6 6.3919C10.6 6.39674 10.6 6.40158 10.6 6.40641C10.6 6.41124 10.6 6.41606 10.6 6.42089C10.6 6.42571 10.6 6.43053 10.6 6.43535C10.6 6.44016 10.6 6.44498 10.6 6.44979C10.6 6.4546 10.6 6.4594 10.6 6.4642C10.6 6.469 10.6 6.4738 10.6 6.4786C10.6 6.48339 10.6 6.48818 10.6 6.49297C10.6 6.49775 10.6 6.50254 10.6 6.50732C10.6 6.5121 10.6 6.51687 10.6 6.52164C10.6 6.52641 10.6 6.53118 10.6 6.53595C10.6 6.54071 10.6 6.54547 10.6 6.55022C10.6 6.55498 10.6 6.55973 10.6 6.56448C10.6 6.56923 10.6 6.57397 10.6 6.57871C10.6 6.58345 10.6 6.58819 10.6 6.59292C10.6 6.59765 10.6 6.60238 10.6 6.6071C10.6 6.61183 10.6 6.61655 10.6 6.62126C10.6 6.62598 10.6 6.63069 10.6 6.63539C10.6 6.6401 10.6 6.6448 10.6 6.6495C10.6 6.6542 10.6 6.65889 10.6 6.66358C10.6 6.66827 10.6 6.67296 10.6 6.67764C10.6 6.68232 10.6 6.687 10.6 6.69167C10.6 6.69634 10.6 6.70101 10.6 6.70568C10.6 6.71034 10.6 6.715 10.6 6.71965C10.6 6.72431 10.6 6.72896 10.6 6.7336C10.6 6.73825 10.6 6.74289 10.6 6.74753C10.6 6.75217 10.6 6.7568 10.6 6.76143C10.6 6.76605 10.6 6.77068 10.6 6.77529C10.6 6.77991 10.6 6.78453 10.6 6.78914C10.6 6.79375 10.6 6.79835 10.6 6.80295C10.6 6.80755 10.6 6.81214 10.6 6.81673C10.6 6.82132 10.6 6.82591 10.6 6.83049C10.6 6.83507 10.6 6.83965 10.6 6.84422C10.6 6.84879 10.6 6.85336 10.6 6.85792C10.6 6.86248 10.6 6.86704 10.6 6.87159C10.6 6.87614 10.6 6.88069 10.6 6.88523C10.6 6.88977 10.6 6.89431 10.6 6.89884C10.6 6.90337 10.6 6.9079 10.6 6.91242C10.6 6.91694 10.6 6.92145 10.6 6.92597C10.6 6.93048 10.6 6.93498 10.6 6.93949C10.6 6.94399 10.6 6.94848 10.6 6.95297C10.6 6.95746 10.6 6.96195 10.6 6.96643C10.6 6.97091 10.6 6.97539 10.6 6.97986C10.6 6.98433 10.6 6.98879 10.6 6.99325C10.6 6.99771 10.6 7.00216 10.6 7.00661C10.6 7.01106 10.6 7.0155 10.6 7.01994C10.6 7.02438 10.6 7.02881 10.6 7.03324C10.6 7.03767 10.6 7.04209 10.6 7.0465C10.6 7.05092 10.6 7.05533 10.6 7.05974C10.6 7.06414 10.6 7.06854 10.6 7.07293C10.6 7.07733 10.6 7.08172 10.6 7.0861C10.6 7.09048 10.6 7.09486 10.6 7.09923C10.6 7.1036 10.6 7.10797 10.6 7.11233C10.6 7.11669 10.6 7.12104 10.6 7.12539C10.6 7.12974 10.6 7.13409 10.6 7.13842C10.6 7.14276 10.6 7.14709 10.6 7.15142C10.6 7.15574 10.6 7.16006 10.6 7.16438C10.6 7.16869 10.6 7.173 10.6 7.1773C10.6 7.1816 10.6 7.1859 10.6 7.19019C10.6 7.19448 10.6 7.19876 10.6 7.20304C10.6 7.20732 10.6 7.21159 10.6 7.21586C10.6 7.22013 10.6 7.22439 10.6 7.22864C10.6 7.2329 10.6 7.23714 10.6 7.24139C10.6 7.24563 10.6 7.24986 10.6 7.25409C10.6 7.25832 10.6 7.26255 10.6 7.26677C10.6 7.27098 10.6 7.27519 10.6 7.2794C10.6 7.2836 10.6 7.2878 10.6 7.29199C10.6 7.29619 10.6 7.30037 10.6 7.30455C10.6 7.30873 10.6 7.31291 10.6 7.31707C10.6 7.32124 10.6 7.3254 10.6 7.32956C10.6 7.33371 10.6 7.33786 10.6 7.342C10.6 7.34614 10.6 7.35028 10.6 7.3544C10.6 7.35853 10.6 7.36265 10.6 7.36677C10.6 7.37089 10.6 7.37499 10.6 7.3791C10.6 7.3832 10.6 7.38729 10.6 7.39138C10.6 7.39547 10.6 7.39956 10.6 7.40363C10.6 7.40771 10.6 7.41178 10.6 7.41584C10.6 7.4199 10.6 7.42396 10.6 7.42801C10.6 7.43205 10.6 7.4361 10.6 7.44013C10.6 7.44417 10.6 7.4482 10.6 7.45222C10.6 7.45624 10.6 7.46025 10.6 7.46426C10.6 7.46827 10.6 7.47227 10.6 7.47626C10.6 7.48026 10.6 7.48425 10.6 7.48823C10.6 7.49221 10.6 7.49618 10.6 7.50015H11.6ZM0 8.20015V12.4001H1V8.20015H0ZM14.5 15.5001C15.163 15.5001 15.7989 15.2367 16.2678 14.7679L15.5607 14.0608C15.2794 14.3421 14.8978 14.5001 14.5 14.5001V15.5001ZM16.2678 14.7679C16.7366 14.299 17 13.6631 17 13.0001H16C16 13.3979 15.842 13.7795 15.5607 14.0608L16.2678 14.7679ZM17 13.0001C17 12.3371 16.7366 11.7012 16.2678 11.2323L15.5607 11.9394C15.842 12.2207 16 12.6023 16 13.0001H17ZM16.2678 11.2323C15.7989 10.7635 15.163 10.5001 14.5 10.5001V11.5001C14.8978 11.5001 15.2794 11.6581 15.5607 11.9394L16.2678 11.2323ZM14.5 10.5001C13.837 10.5001 13.2011 10.7635 12.7322 11.2323L13.4393 11.9394C13.7206 11.6581 14.1022 11.5001 14.5 11.5001V10.5001ZM12.7322 11.2323C12.2634 11.7012 12 12.3371 12 13.0001H13C13 12.6023 13.158 12.2207 13.4393 11.9394L12.7322 11.2323ZM12 13.0001C12 13.6631 12.2634 14.299 12.7322 14.7679L13.4393 14.0608C13.158 13.7795 13 13.3979 13 13.0001H12ZM12.7322 14.7679C13.2011 15.2367 13.837 15.5001 14.5 15.5001V14.5001C14.1022 14.5001 13.7206 14.3421 13.4393 14.0608L12.7322 14.7679ZM0.5 4H4V3H0.5V4ZM0.5 6.3H2.7V5.3H0.5V6.3Z" fill="#707070"/>
</svg>
