<svg width="24" height="24" viewBox="0 0 24 24" fill="none" xmlns="http://www.w3.org/2000/svg">
<path d="M11.1369 3.22358C11.4009 3.07695 11.698 3 12 3C12.302 3 12.5991 3.07695 12.8631 3.22358L19.5431 6.9338C19.6816 7.01082 19.797 7.12345 19.8773 7.26005C19.9577 7.39664 20 7.55223 20 7.71069V15.0307C19.9999 15.3477 19.9151 15.6589 19.7543 15.9321C19.5934 16.2053 19.3625 16.4306 19.0853 16.5845L12.8631 20.0422C12.5991 20.1889 12.302 20.2658 12 20.2658C11.698 20.2658 11.4009 20.1889 11.1369 20.0422L4.91467 16.5845C4.63765 16.4306 4.40678 16.2055 4.24597 15.9325C4.08515 15.6595 4.00023 15.3484 4 15.0316V7.71069C3.99999 7.55223 4.04235 7.39664 4.12268 7.26005C4.20301 7.12345 4.3184 7.01082 4.45689 6.9338L11.1378 3.22358H11.1369Z" stroke="#343434" stroke-linecap="round" stroke-linejoin="round"/>
<path d="M8 4.96631L16 9.41075V12.5219" stroke="#343434" stroke-linecap="round" stroke-linejoin="round"/>
<path d="M6.66663 11.9238L9.33329 13.4101" stroke="#343434" stroke-linecap="round" stroke-linejoin="round"/>
<path d="M12 11.6329V20.5218M4 7.18848L12 11.6329L4 7.18848ZM12 11.6329L20 7.18848L12 11.6329Z" stroke="#343434" stroke-linejoin="round"/>
</svg>
