<svg width="24" height="24" viewBox="0 0 24 24" fill="none" xmlns="http://www.w3.org/2000/svg">
<path d="M5.5 5C5.5 4.46957 5.70752 3.96086 6.07691 3.58579C6.4463 3.21071 6.9473 3 7.4697 3H16.5303C16.789 3 17.0451 3.05173 17.2841 3.15224C17.523 3.25275 17.7402 3.40007 17.9231 3.58579C18.106 3.7715 18.2511 3.99198 18.3501 4.23463C18.4491 4.47728 18.5 4.73736 18.5 5V16.4C18.5 16.5591 18.4377 16.7117 18.3269 16.8243C18.2161 16.9368 18.0658 17 17.9091 17H6.68182C6.68182 17.2122 6.76483 17.4157 6.91258 17.5657C7.06034 17.7157 7.26074 17.8 7.4697 17.8H17.9091C18.0658 17.8 18.2161 17.8632 18.3269 17.9757C18.4377 18.0883 18.5 18.2409 18.5 18.4C18.5 18.5591 18.4377 18.7117 18.3269 18.8243C18.2161 18.9368 18.0658 19 17.9091 19H7.4697C6.9473 19 6.4463 18.7893 6.07691 18.4142C5.70752 18.0391 5.5 17.5304 5.5 17V5ZM12 7.8C12.209 7.8 12.4094 7.71571 12.5571 7.56569C12.7049 7.41566 12.7879 7.21217 12.7879 7C12.7879 6.78783 12.7049 6.58434 12.5571 6.43431C12.4094 6.28429 12.209 6.2 12 6.2C11.791 6.2 11.5906 6.28429 11.4429 6.43431C11.2951 6.58434 11.2121 6.78783 11.2121 7C11.2121 7.21217 11.2951 7.41566 11.4429 7.56569C11.5906 7.71571 11.791 7.8 12 7.8V7.8ZM11.4091 9.2V13.2C11.4091 13.3591 11.4713 13.5117 11.5822 13.6243C11.693 13.7368 11.8433 13.8 12 13.8C12.1567 13.8 12.307 13.7368 12.4178 13.6243C12.5287 13.5117 12.5909 13.3591 12.5909 13.2V9.2C12.5909 9.04087 12.5287 8.88826 12.4178 8.77574C12.307 8.66321 12.1567 8.6 12 8.6C11.8433 8.6 11.693 8.66321 11.5822 8.77574C11.4713 8.88826 11.4091 9.04087 11.4091 9.2Z" fill="black"/>
</svg>
