<svg width="22" height="23" viewBox="0 0 22 23" fill="none" xmlns="http://www.w3.org/2000/svg">
<path d="M0.75 1.5H3.47222L3.91667 3.72222M3.91667 3.72222H21.25L16.8056 12.6111H5.69444M3.91667 3.72222L5.69444 12.6111M5.69444 12.6111L3.14667 15.1589C2.44667 15.8589 2.94222 17.0556 3.93222 17.0556H16.8056M16.8056 17.0556C16.2162 17.0556 15.651 17.2897 15.2342 17.7064C14.8175 18.1232 14.5833 18.6884 14.5833 19.2778C14.5833 19.8671 14.8175 20.4324 15.2342 20.8491C15.651 21.2659 16.2162 21.5 16.8056 21.5C17.3949 21.5 17.9602 21.2659 18.3769 20.8491C18.7937 20.4324 19.0278 19.8671 19.0278 19.2778C19.0278 18.6884 18.7937 18.1232 18.3769 17.7064C17.9602 17.2897 17.3949 17.0556 16.8056 17.0556Z" stroke="#343434" stroke-width="1.5" stroke-linecap="round" stroke-linejoin="round"/>
<circle cx="4.45261" cy="19.35" r="2.15" stroke="#343434" stroke-width="1.5"/>
</svg>
