<svg width="48" height="48" viewBox="0 0 48 48" fill="none" xmlns="http://www.w3.org/2000/svg">
<path d="M33.0159 27.9112C31.6674 26.263 30.7154 25.424 30.7154 20.8803C30.7154 16.7194 28.5876 15.237 26.8363 14.517C26.6037 14.4216 26.3847 14.2024 26.3138 13.9638C26.0066 12.9198 25.1454 12 24.0006 12C22.8559 12 21.9941 12.9203 21.6901 13.9648C21.6192 14.2061 21.4002 14.4216 21.1676 14.517C19.4142 15.238 17.2885 16.7152 17.2885 20.8803C17.2859 25.424 16.3338 26.263 14.9853 27.9112C14.4266 28.5939 14.916 29.619 15.8933 29.619H32.1133C33.0853 29.619 33.5715 28.5907 33.0159 27.9112Z" stroke="#343434" stroke-width="1.5" stroke-linecap="round" stroke-linejoin="round"/>
<path d="M27.2375 29.8062V30.5462C27.2375 31.3313 26.8964 32.0842 26.2892 32.6393C25.6821 33.1944 24.8586 33.5062 24 33.5062C23.1413 33.5062 22.3178 33.1944 21.7107 32.6393C21.1035 32.0842 20.7625 31.3313 20.7625 30.5462V29.8062" stroke="#343434" stroke-width="1.5" stroke-linecap="round" stroke-linejoin="round"/>
</svg>
