<svg width="20" height="20" viewBox="0 0 20 20" fill="none" xmlns="http://www.w3.org/2000/svg">
<path d="M17.7083 0.75H2.29167C1.88279 0.75 1.49066 0.912425 1.20154 1.20154C0.912425 1.49066 0.75 1.88279 0.75 2.29167V17.7083C0.75 18.1172 0.912425 18.5093 1.20154 18.7985C1.49066 19.0876 1.88279 19.25 2.29167 19.25H17.7083C18.1172 19.25 18.5093 19.0876 18.7985 18.7985C19.0876 18.5093 19.25 18.1172 19.25 17.7083V2.29167C19.25 1.88279 19.0876 1.49066 18.7985 1.20154C18.5093 0.912425 18.1172 0.75 17.7083 0.75Z" stroke="#343434" stroke-width="1.5" stroke-linecap="round" stroke-linejoin="round"/>
<path d="M6.91667 9.48612C7.59813 9.48612 8.25168 9.21541 8.73355 8.73355C9.21541 8.25168 9.48612 7.59813 9.48612 6.91667C9.48612 6.23521 9.21541 5.58167 8.73355 5.0998C8.25168 4.61794 7.59813 4.34723 6.91667 4.34723C6.23521 4.34723 5.58167 4.61794 5.0998 5.0998C4.61794 5.58167 4.34723 6.23521 4.34723 6.91667C4.34723 7.59813 4.61794 8.25168 5.0998 8.73355C5.58167 9.21541 6.23521 9.48612 6.91667 9.48612V9.48612Z" stroke="#343434" stroke-width="1.5" stroke-linecap="round" stroke-linejoin="round"/>
<path d="M19.25 16.1667L13.5972 11.0278L8.45833 15.6528L4.86111 12.5694L0.75 15.6528" stroke="#343434" stroke-width="1.5" stroke-linecap="round" stroke-linejoin="round"/>
</svg>
