<svg width="25" height="24" viewBox="0 0 25 24" fill="none" xmlns="http://www.w3.org/2000/svg">
<path d="M11.5316 18.9573L11.5309 18.9566C9.20354 16.8462 7.31203 15.1278 5.99651 13.5183C4.68648 11.9156 4 10.4821 4 8.95C4 6.44574 5.95355 4.5 8.45 4.5C9.86485 4.5 11.2311 5.16123 12.1206 6.19764L12.5 6.63971L12.8794 6.19764C13.7689 5.16123 15.1352 4.5 16.55 4.5C19.0465 4.5 21 6.44574 21 8.95C21 10.4821 20.3135 11.9156 19.0035 13.5183C17.688 15.1278 15.7965 16.8462 13.4691 18.9566L13.4684 18.9573L12.5 19.8388L11.5316 18.9573Z" stroke="#343434"/>
</svg>
