<svg 
  width="154.87310791015625" 
  height="13.200000762939453" fill="none" 
  xmlns="http://www.w3.org/2000/svg">
  <path d="M 0 13.200000762939453 L 4.640000343322754 0 L 8.760000228881836 0 L 13.380001068115234 13.200000762939453 L 9.84000015258789 13.200000762939453 L 8.940000534057617 10.220000267028809 L 4.380000114440918 10.220000267028809 L 3.4600000381469727 13.200000762939453 L 0 13.200000762939453 Z M 6.100000381469727 4.700000762939453 L 5.100000381469727 7.880001068115234 L 8.220000267028809 7.880001068115234 L 7.260000228881836 4.720000267028809 L 6.6800007820129395 2.640000820159912 L 6.640000343322754 2.640000820159912 L 6.100000381469727 4.700000762939453 ZM 33.21515655517578 0 C 34.788490295410156 0 36.00848978757858 0.3666669726371765 36.87515640258789 1.1000003814697266 C 37.755156219005585 1.8333337903022766 38.19515609741211 2.8200005292892456 38.19515609741211 4.060000419616699 C 38.19515609741211 5.046667098999023 37.96182155609131 5.860000848770142 37.495155334472656 6.500000953674316 C 37.04182147979736 7.126667499542236 36.388489723205566 7.586667537689209 35.53515625 7.880001068115234 L 38.975154876708984 13.200000762939453 L 35.17515563964844 13.200000762939453 L 32.35515594482422 8.380000114440918 L 30.295156478881836 8.380000114440918 L 30.295156478881836 13.200000762939453 L 26.915157318115234 13.200000762939453 L 26.915157318115234 0 L 33.21515655517578 0 Z M 32.73515319824219 5.940000534057617 C 33.40182000398636 5.940000534057617 33.90182018280029 5.80666771531105 34.23515319824219 5.540000915527344 C 34.56848660111427 5.273334115743637 34.73515319824219 4.846666872501373 34.73515319824219 4.260000228881836 C 34.73515319824219 3.15333354473114 34.06848645210266 2.6000003814697266 32.73515319824219 2.6000003814697266 L 30.295156478881836 2.6000003814697266 L 30.295156478881836 5.940000534057617 L 32.73515319824219 5.940000534057617 ZM 63.64796829223633 0 L 63.64796829223633 2.660000801086426 L 59.34796905517578 2.660000801086426 L 59.34796905517578 13.200000762939453 L 55.90796661376953 13.200000762939453 L 55.90796661376953 2.660000801086426 L 51.58796691894531 2.660000801086426 L 51.58796691894531 0 L 63.64796829223633 0 ZM 79.234375 0 L 79.234375 13.200000762939453 L 78.234375 13.200000762939453 L 78.234375 0 L 79.234375 0 ZM 98.41998291015625 0 L 98.41998291015625 7.40000057220459 L 105.65998840332031 0 L 106.97998046875 0 L 101.75997924804688 5.340000152587891 L 107.11997985839844 13.200000762939453 L 105.89997863769531 13.200000762939453 L 101.05998229980469 6.080000877380371 L 98.41998291015625 8.760000228881836 L 98.41998291015625 13.200000762939453 L 97.41998291015625 13.200000762939453 L 97.41998291015625 0 L 98.41998291015625 0 ZM 121.62701416015625 13.200000762939453 L 121.62701416015625 0 L 130.6470184326172 0 L 130.6470184326172 0.9200000762939453 L 122.62701416015625 0.9200000762939453 L 122.62701416015625 6.020000457763672 L 128.96701049804688 6.020000457763672 L 128.96701049804688 6.960000991821289 L 122.62701416015625 6.960000991821289 L 122.62701416015625 12.280000686645508 L 130.96701049804688 12.280000686645508 L 130.96701049804688 13.200000762939453 L 121.62701416015625 13.200000762939453 ZM 154.87310791015625 0 L 154.87310791015625 0.9200000762939453 L 150.0531005859375 0.9200000762939453 L 150.0531005859375 13.200000762939453 L 149.0531005859375 13.200000762939453 L 149.0531005859375 0.9200000762939453 L 144.2331085205078 0.9200000762939453 L 144.2331085205078 0 L 154.87310791015625 0 Z" fill="rgb(0,0,0)"/>
</svg>